<svg width="150" height="150" viewBox="0 0 150 150" fill="none" xmlns="http://www.w3.org/2000/svg">
<g id="Group 3664">
<circle id="Ellipse 25" cx="75" cy="75" r="74.3182" stroke="#141414" stroke-width="1.36364"/>
<path id="Vector" d="M115 70.5294H91.6274L111.863 58.8431L107.471 51.0784L87.1569 62.8431L98.8431 42.5294L91.1569 38.0588L79.4706 58.3725V35H70.6078V58.3725L58.8431 38.0588L51.1569 42.5294L62.8431 62.8431L42.6078 51.0784L38.1373 58.8431L58.451 70.5294H35V79.3922H58.451L38.1373 91.0784L42.6078 98.8431L62.8431 87.0784L51.1569 107.392L58.8431 111.863L70.6078 91.549V115H79.4706V91.549L91.1569 111.863L98.8431 107.392L87.1569 87.0784L107.471 98.8431L111.863 91.0784L91.6274 79.3922H115V70.5294Z" fill="#6944EB"/>
</g>
</svg>
