<svg width="150" height="150" viewBox="0 0 150 150" fill="none" xmlns="http://www.w3.org/2000/svg">
<g id="Group 3663">
<circle id="Ellipse 25" cx="75" cy="75" r="74.3182" stroke="#141414" stroke-width="1.36364"/>
<path id="Vector" d="M75 42.8431C92.7255 42.8431 107.157 57.2745 107.157 75C107.157 92.7255 92.7255 107.157 75 107.157C57.2745 107.157 42.8431 92.7255 42.8431 75C42.8431 57.2745 57.2745 42.8431 75 42.8431ZM75 35C52.8823 35 35 52.8824 35 75C35 97.1176 52.8823 115 75 115C97.1176 115 115 97.1176 115 75C115 52.8824 97.1176 35 75 35Z" fill="#DAF763"/>
<path id="Vector_2" d="M74.9983 57.2748C84.8022 57.2748 92.7238 65.1963 92.7238 75.0003C92.7238 84.8042 84.8022 92.7257 74.9983 92.7257C65.1944 92.7257 57.2728 84.8042 57.2728 75.0003C57.2728 65.1963 65.1944 57.2748 74.9983 57.2748ZM74.9983 49.4316C60.8807 49.4316 49.4297 60.8826 49.4297 75.0003C49.4297 89.1179 60.8807 100.569 74.9983 100.569C89.1159 100.569 100.567 89.1179 100.567 75.0003C100.567 60.8826 89.1159 49.4316 74.9983 49.4316Z" fill="#DAF763"/>
<path id="Vector_3" d="M75.0005 71.7054C76.8044 71.7054 78.2946 73.1956 78.2946 74.9996C78.2946 76.8035 76.8044 78.2937 75.0005 78.2937C73.1966 78.2937 71.7064 76.8035 71.7064 74.9996C71.7064 73.1956 73.1966 71.7054 75.0005 71.7054ZM75.0005 63.8623C68.8829 63.8623 63.8633 68.8035 63.8633 74.9996C63.8633 81.1956 68.8044 86.1368 75.0005 86.1368C81.1966 86.1368 86.1378 81.1956 86.1378 74.9996C86.1378 68.8035 81.1966 63.8623 75.0005 63.8623Z" fill="#DAF763"/>
</g>
</svg>
