<?xml version="1.0" encoding="utf-8"?>
<!-- Generator: Adobe Illustrator 26.0.2, SVG Export Plug-In . SVG Version: 6.00 Build 0)  -->
<svg version="1.1" id="Laag_1" xmlns="http://www.w3.org/2000/svg" xmlns:xlink="http://www.w3.org/1999/xlink" x="0px" y="0px"
	 viewBox="0 0 141.7 190.3" style="enable-background:new 0 0 141.7 190.3;" xml:space="preserve">
<style type="text/css">
	.st0{fill:#e7000e;}
	.st1{fill:#FFFFFF;}
	.st2{fill:none;}
</style>
<rect x="0.1" y="-0.3" class="st0" width="141.7" height="190.5"/>
<g>
	<path class="st1" d="M77.1,83.7c-1.9-1-4.1-1.5-6.3-1.5c-7.9,0-14.2,6.4-14.2,14.2s6.4,14.2,14.2,14.2c0.3,0,0.6,0,0.9,0v-7.9
		c-0.3,0-0.6,0.1-0.9,0.1c-3.5,0-6.3-2.8-6.3-6.3c0-3.5,2.8-6.3,6.3-6.3c3.5,0,6.3,2.8,6.3,6.3v0c0,0.1,0,0.1,0,0.2h0v0.2H85V68.7
		h-7.9V83.7z"/>
	<path class="st1" d="M39.3,73.5h-7.9h-0.8l-11.6,30.3l-0.2,0.6h0l0,0h8.7l0,0H43l2.3,6.2h8.7L40.2,73.5H39.3z M30.6,96.5l4.8-12.6
		l4.7,12.6H30.6z"/>
	<polygon class="st1" points="107,106 115.4,106 123.3,82.8 114.9,82.8 	"/>
	<rect x="18.9" y="126.5" class="st1" width="7.9" height="23.9"/>
	<ellipse transform="matrix(0.9871 -0.1602 0.1602 0.9871 -18.0995 5.1454)" class="st1" cx="22.9" cy="114.8" rx="4.1" ry="4.1"/>
	<path class="st1" d="M46.7,115.9c-7.9,0-14.2,6.4-14.2,14.2c0,7.9,6.4,14.2,14.2,14.2c0.8,0,1.6-0.1,2.4-0.2V136
		c-0.8,0.3-1.6,0.5-2.4,0.5c-3.5,0-6.3-2.8-6.3-6.3c0-3.5,2.8-6.3,6.3-6.3c2.2,0,4.1,1.1,5.2,2.8l5.7-5.5
		C55,117.8,51.1,115.9,46.7,115.9z"/>
	<path class="st1" d="M85.5,132.3c-1.5-6.3-7.1-11-13.9-11v7.9c2.3,0,4.3,1.2,5.4,3.1c0.1,0.1,0.1,0.2,0.2,0.3H59.6v0l-1.6,0
		c-0.4,1.3-0.6,2.6-0.6,3.9c0,7.9,6.4,14.2,14.2,14.2c3.3,0,6.2-1.1,8.6-2.9l-6-5.5c-0.8,0.4-1.7,0.6-2.6,0.6
		c-2.4,0-4.6-1.4-5.6-3.4h10.6h7.3c0.7,0,1.2,0,1.4,0c0.4-1.3,0.6-2.6,0.6-3.9C85.9,134.4,85.8,133.3,85.5,132.3z"/>
	<polygon class="st1" points="90.7,82.8 98.6,106 107,106 99.1,82.8 	"/>
	<g>
		<path class="st1" d="M23.3,164.6c-0.2-0.3-0.6-0.5-1-0.5c-1,0-1.6,0.7-1.6,1.7c0,1,0.6,1.7,1.6,1.7c0.4,0,0.8-0.2,1-0.5l1.3,1.4
			c-0.6,0.6-1.6,0.9-2.3,0.9c-2,0-3.7-1.4-3.7-3.5c0-2.1,1.6-3.5,3.7-3.5c0.8,0,1.7,0.2,2.3,0.9L23.3,164.6z"/>
		<path class="st1" d="M25.5,162.5h2v1.1h0c0.4-0.8,1-1.2,1.9-1.2c0.2,0,0.5,0,0.7,0.1v1.9c-0.3-0.1-0.6-0.1-0.9-0.1
			c-1.5,0-1.7,0.9-1.7,2.2v2.7h-2V162.5z"/>
		<path class="st1" d="M37.1,168c-0.7,0.8-1.7,1.3-2.8,1.3c-2,0-3.7-1.4-3.7-3.5c0-2.1,1.6-3.5,3.7-3.5c1.9,0,3.1,1.4,3.1,3.5v0.6
			h-4.7c0.2,0.8,0.7,1.3,1.5,1.3c0.7,0,1.1-0.3,1.4-0.8L37.1,168z M35.4,165.1c0-0.7-0.5-1.2-1.2-1.2c-0.9,0-1.4,0.6-1.4,1.2H35.4z"
			/>
		<path class="st1" d="M45,168c-0.6,0.8-1.7,1.3-2.8,1.3c-2,0-3.7-1.4-3.7-3.5c0-2.1,1.6-3.5,3.7-3.5c1.9,0,3.1,1.4,3.1,3.5v0.6
			h-4.7c0.2,0.8,0.7,1.3,1.5,1.3c0.7,0,1.1-0.3,1.4-0.8L45,168z M39.4,160.4c0-0.6,0.5-1.1,1.1-1.1c0.6,0,1.2,0.5,1.2,1.1
			s-0.5,1.2-1.2,1.2C39.9,161.5,39.4,161,39.4,160.4z M43.3,165.1c0-0.7-0.5-1.2-1.2-1.2c-0.9,0-1.4,0.6-1.4,1.2H43.3z M42.2,160.4
			c0-0.6,0.5-1.1,1.1-1.1c0.6,0,1.2,0.5,1.2,1.1s-0.5,1.2-1.2,1.2C42.7,161.5,42.2,161,42.2,160.4z"/>
		<path class="st1" d="M52.9,168c-0.6,0.8-1.7,1.3-2.8,1.3c-2,0-3.7-1.4-3.7-3.5c0-2.1,1.6-3.5,3.7-3.5c1.9,0,3.1,1.4,3.1,3.5v0.6
			h-4.7c0.2,0.8,0.7,1.3,1.5,1.3c0.7,0,1.1-0.3,1.4-0.8L52.9,168z M51.2,165.1c0-0.7-0.5-1.2-1.2-1.2c-0.9,0-1.4,0.6-1.4,1.2H51.2z"
			/>
		<path class="st1" d="M54.6,162.5h2v1.1h0c0.4-0.8,1-1.2,1.9-1.2c0.2,0,0.5,0,0.7,0.1v1.9c-0.3-0.1-0.6-0.1-0.9-0.1
			c-1.5,0-1.7,0.9-1.7,2.2v2.7h-2V162.5z"/>
		<path class="st1" d="M64.7,164.1h-1.8v2.2c0,0.7,0.1,1.2,1,1.2c0.2,0,0.6,0,0.8-0.2v1.7c-0.4,0.2-0.9,0.2-1.4,0.2
			c-1.4,0-2.4-0.6-2.4-2v-3.1h-1.3v-1.6h1.3v-1.9h2v1.9h1.8V164.1z"/>
		<path class="st1" d="M71.1,159.3c0.6,0,1.2,0.5,1.2,1.2s-0.5,1.2-1.2,1.2c-0.7,0-1.2-0.5-1.2-1.2S70.4,159.3,71.1,159.3z
			 M70.1,162.5h2v6.6h-2V162.5z"/>
		<path class="st1" d="M73.7,162.5h1.9v0.9h0c0.3-0.5,0.9-1.1,1.9-1.1c0.9,0,1.7,0.4,2,1.2c0.5-0.8,1.1-1.2,2.1-1.2
			c1.8,0,2.3,1.3,2.3,2.9v3.9h-2v-3.8c0-0.6-0.2-1.1-0.9-1.1c-0.9,0-1.2,0.7-1.2,1.5v3.5h-2v-3.5c0-0.5,0-1.5-0.9-1.5
			c-1.1,0-1.2,0.8-1.2,1.7v3.3h-2V162.5z"/>
		<path class="st1" d="M85.8,162.5h1.9v0.9h0c0.3-0.5,1.1-1,2-1c2,0,3.2,1.4,3.2,3.4c0,1.8-1.1,3.5-3,3.5c-0.8,0-1.6-0.2-2.1-0.9h0
			v3.8h-2V162.5z M89.3,167.5c1,0,1.6-0.7,1.6-1.7c0-1-0.6-1.7-1.6-1.7c-1,0-1.6,0.7-1.6,1.7C87.7,166.8,88.3,167.5,89.3,167.5z"/>
		<path class="st1" d="M98.4,168.3L98.4,168.3c-0.5,0.7-1.3,1-2.1,1c-1.2,0-2.3-0.7-2.3-2c0-2.3,2.8-2.3,4.5-2.3
			c0-0.7-0.6-1.2-1.3-1.2c-0.7,0-1.2,0.3-1.7,0.8l-1.1-1.1c0.7-0.7,1.8-1.1,2.9-1.1c2.4,0,3,1.2,3,3.4v3.3h-1.9V168.3z M97.9,166.2
			c-0.6,0-2,0.1-2,0.9c0,0.5,0.5,0.7,1,0.7c0.8,0,1.5-0.4,1.5-1.2v-0.4H97.9z"/>
		<path class="st1" d="M106.1,164.6c-0.2-0.3-0.6-0.5-1-0.5c-1,0-1.6,0.7-1.6,1.7c0,1,0.6,1.7,1.6,1.7c0.4,0,0.8-0.2,1-0.5l1.3,1.4
			c-0.6,0.6-1.6,0.9-2.3,0.9c-2,0-3.7-1.4-3.7-3.5c0-2.1,1.6-3.5,3.7-3.5c0.8,0,1.7,0.2,2.3,0.9L106.1,164.6z"/>
		<path class="st1" d="M112.8,164.1H111v2.2c0,0.7,0.1,1.2,1,1.2c0.2,0,0.6,0,0.8-0.2v1.7c-0.4,0.2-0.9,0.2-1.4,0.2
			c-1.4,0-2.4-0.6-2.4-2v-3.1h-1.3v-1.6h1.3v-1.9h2v1.9h1.8V164.1z"/>
		<path class="st1" d="M116.3,166.7c0.7,0,1.2,0.6,1.2,1.2c0,0.7-0.6,1.2-1.2,1.2c-0.7,0-1.2-0.6-1.2-1.2
			C115,167.2,115.6,166.7,116.3,166.7z M117.3,165.9h-2v-6.4h2V165.9z"/>
	</g>
</g>
<circle class="st2" cx="70.9" cy="119.4" r="70.9"/>
</svg>
