<?xml version="1.0" encoding="utf-8"?>
<!-- Generator: Adobe Illustrator 23.1.0, SVG Export Plug-In . SVG Version: 6.00 Build 0)  -->
<svg version="1.1" id="Laag_1" xmlns="http://www.w3.org/2000/svg" xmlns:xlink="http://www.w3.org/1999/xlink" x="0px" y="0px"
	 viewBox="0 0 204.99 93" style="enable-background:new 0 0 204.99 93;" xml:space="preserve">
<style type="text/css">
	.st0{fill:none;}
	.st1{fill:#E30613;}
</style>
<rect class="st0" width="204.99" height="93"/>
<g>
	<path d="M74.23,30.19c-1.91-0.95-4.06-1.49-6.35-1.49c-7.87,0-14.24,6.38-14.24,14.24s6.38,14.24,14.24,14.24
		c0.29,0,0.58-0.03,0.87-0.04v-7.92c-0.28,0.04-0.57,0.07-0.87,0.07c-3.5,0-6.35-2.84-6.35-6.35c0-3.5,2.84-6.35,6.35-6.35
		c3.5,0,6.34,2.84,6.35,6.34v0.01c0,0.07-0.01,0.13-0.01,0.2h0.01v0.24h7.9V15.19h-7.9V30.19z"/>
	<path d="M36.45,19.97h-7.86h-0.84L16.18,50.3l-0.24,0.6h0.01l-0.01,0.01h8.7l0.01-0.01h15.51l2.33,6.24h8.7l-13.9-37.18H36.45z
		 M27.69,42.95l4.8-12.58l4.7,12.58H27.69z"/>
	<polygon points="104.12,52.43 112.54,52.43 120.42,29.27 112.01,29.27 	"/>
	<rect x="125.56" y="33.29" width="7.9" height="23.89"/>
	<ellipse transform="matrix(0.9871 -0.1602 0.1602 0.9871 -1.4347 20.9949)" cx="129.51" cy="19.4" rx="4.08" ry="4.08"/>
	<path d="M153.35,19.97c-7.87,0-14.24,6.38-14.24,14.24c0,7.87,6.38,14.24,14.24,14.24c0.83,0,1.64-0.09,2.44-0.22v-8.16
		c-0.75,0.31-1.57,0.49-2.44,0.49c-3.5,0-6.35-2.84-6.35-6.35c0-3.5,2.84-6.35,6.35-6.35c2.17,0,4.09,1.09,5.23,2.76l5.69-5.55
		C161.66,21.96,157.73,19.97,153.35,19.97z"/>
	<path d="M192.17,38.59c-1.47-6.3-7.12-10.98-13.87-10.98v7.9c2.32,0,4.34,1.24,5.45,3.09c0.06,0.1,0.12,0.21,0.18,0.32h-17.67v0
		l-1.65,0c-0.36,1.25-0.55,2.58-0.55,3.95c0,7.87,6.38,14.24,14.24,14.24c3.25,0,6.24-1.11,8.63-2.95l-6-5.53
		c-0.8,0.37-1.69,0.58-2.63,0.58c-2.45,0-4.57-1.39-5.62-3.41h10.59h7.29c0.66,0,1.18,0,1.44,0c0.36-1.25,0.56-2.58,0.56-3.95
		C192.55,40.73,192.42,39.64,192.17,38.59z"/>
	<polygon points="87.82,29.27 95.71,52.43 104.12,52.43 96.23,29.27 	"/>
</g>
<g>
	<path class="st1" d="M21.93,73.34c-0.27-0.38-0.77-0.67-1.33-0.67c-1.35,0-2.16,0.9-2.16,2.21s0.81,2.21,2.16,2.21
		c0.59,0,1.03-0.31,1.33-0.67l1.78,1.87c-0.85,0.86-2.09,1.17-3.12,1.17c-2.7,0-4.86-1.8-4.86-4.59c0-2.79,2.16-4.59,4.86-4.59
		c1.03,0,2.27,0.31,3.12,1.17L21.93,73.34z"/>
	<path class="st1" d="M24.86,70.52h2.7v1.4h0.04c0.58-1.06,1.33-1.62,2.52-1.62c0.31,0,0.65,0.02,0.9,0.09v2.47
		c-0.38-0.11-0.76-0.18-1.15-0.18c-2.05,0-2.3,1.19-2.3,2.93v3.66h-2.7V70.52z"/>
	<path class="st1" d="M40.33,77.76c-0.87,1.1-2.29,1.73-3.69,1.73c-2.7,0-4.86-1.8-4.86-4.59c0-2.79,2.16-4.59,4.86-4.59
		c2.52,0,4.11,1.8,4.11,4.59v0.85h-6.27c0.21,1.03,0.99,1.69,2.03,1.69c0.88,0,1.48-0.45,1.93-1.06L40.33,77.76z M38.04,73.9
		c0.02-0.9-0.68-1.66-1.66-1.66c-1.19,0-1.84,0.81-1.91,1.66H38.04z"/>
	<path class="st1" d="M50.84,77.76c-0.86,1.1-2.29,1.73-3.69,1.73c-2.7,0-4.86-1.8-4.86-4.59c0-2.79,2.16-4.59,4.86-4.59
		c2.52,0,4.11,1.8,4.11,4.59v0.85h-6.27c0.22,1.03,0.99,1.69,2.03,1.69c0.88,0,1.48-0.45,1.93-1.06L50.84,77.76z M43.39,67.67
		c0-0.77,0.67-1.48,1.46-1.48c0.83,0,1.57,0.61,1.57,1.48s-0.65,1.55-1.53,1.55C44.03,69.22,43.39,68.5,43.39,67.67z M48.55,73.9
		c0.02-0.9-0.68-1.66-1.66-1.66c-1.19,0-1.84,0.81-1.91,1.66H48.55z M47.13,67.67c0-0.77,0.67-1.48,1.46-1.48
		c0.83,0,1.57,0.61,1.57,1.48s-0.65,1.55-1.53,1.55C47.78,69.22,47.13,68.5,47.13,67.67z"/>
	<path class="st1" d="M61.35,77.76c-0.86,1.1-2.29,1.73-3.69,1.73c-2.7,0-4.86-1.8-4.86-4.59c0-2.79,2.16-4.59,4.86-4.59
		c2.52,0,4.11,1.8,4.11,4.59v0.85H55.5c0.22,1.03,0.99,1.69,2.04,1.69c0.88,0,1.48-0.45,1.93-1.06L61.35,77.76z M59.07,73.9
		c0.02-0.9-0.68-1.66-1.66-1.66c-1.19,0-1.84,0.81-1.91,1.66H59.07z"/>
	<path class="st1" d="M63.58,70.52h2.7v1.4h0.04c0.58-1.06,1.33-1.62,2.52-1.62c0.31,0,0.65,0.02,0.9,0.09v2.47
		c-0.38-0.11-0.76-0.18-1.15-0.18c-2.05,0-2.3,1.19-2.3,2.93v3.66h-2.7V70.52z"/>
	<path class="st1" d="M77.05,72.68h-2.38v2.92c0,0.94,0.11,1.62,1.28,1.62c0.29,0,0.86-0.04,1.1-0.25v2.25
		c-0.59,0.22-1.26,0.27-1.89,0.27c-1.8,0-3.19-0.74-3.19-2.65v-4.16h-1.73v-2.16h1.73v-2.59h2.7v2.59h2.38V72.68z"/>
	<path class="st1" d="M85.49,66.2c0.86,0,1.57,0.7,1.57,1.57s-0.7,1.57-1.57,1.57c-0.87,0-1.57-0.7-1.57-1.57S84.62,66.2,85.49,66.2
		z M84.14,70.52h2.7v8.75h-2.7V70.52z"/>
	<path class="st1" d="M88.96,70.52h2.59v1.19h0.04c0.36-0.68,1.24-1.4,2.56-1.4c1.22,0,2.23,0.5,2.7,1.57
		c0.63-1.12,1.48-1.57,2.77-1.57c2.38,0,3.1,1.67,3.1,3.8v5.17h-2.7v-5.1c0-0.81-0.31-1.49-1.19-1.49c-1.24,0-1.64,0.88-1.64,1.96
		v4.63h-2.7v-4.63c0-0.65,0.04-1.96-1.21-1.96c-1.4,0-1.62,1.1-1.62,2.23v4.36h-2.7V70.52z"/>
	<path class="st1" d="M105.05,70.52h2.48v1.15h0.04c0.41-0.63,1.46-1.37,2.68-1.37c2.59,0,4.3,1.87,4.3,4.52
		c0,2.43-1.51,4.66-4,4.66c-1.12,0-2.16-0.31-2.77-1.15h-0.04v5.04h-2.7V70.52z M109.7,77.11c1.35,0,2.16-0.9,2.16-2.21
		s-0.81-2.21-2.16-2.21s-2.16,0.9-2.16,2.21S108.35,77.11,109.7,77.11z"/>
	<path class="st1" d="M121.81,78.17h-0.04c-0.59,0.94-1.68,1.31-2.77,1.31c-1.64,0-3.12-0.94-3.12-2.7c0-3.03,3.67-3.08,5.92-3.08
		c0-0.95-0.79-1.57-1.73-1.57c-0.88,0-1.62,0.4-2.2,1.04l-1.44-1.48c0.99-0.94,2.43-1.4,3.85-1.4c3.15,0,4,1.6,4,4.52v4.45h-2.48
		V78.17z M121.15,75.43c-0.83,0-2.67,0.07-2.67,1.26c0,0.65,0.68,0.96,1.28,0.96c1.06,0,2.05-0.56,2.05-1.64v-0.58H121.15z"/>
	<path class="st1" d="M132.09,73.34c-0.27-0.38-0.77-0.67-1.33-0.67c-1.35,0-2.16,0.9-2.16,2.21s0.81,2.21,2.16,2.21
		c0.59,0,1.03-0.31,1.33-0.67l1.78,1.87c-0.85,0.86-2.09,1.17-3.12,1.17c-2.7,0-4.86-1.8-4.86-4.59c0-2.79,2.16-4.59,4.86-4.59
		c1.03,0,2.27,0.31,3.12,1.17L132.09,73.34z"/>
	<path class="st1" d="M140.98,72.68h-2.38v2.92c0,0.94,0.11,1.62,1.28,1.62c0.29,0,0.86-0.04,1.1-0.25v2.25
		c-0.59,0.22-1.26,0.27-1.89,0.27c-1.8,0-3.19-0.74-3.19-2.65v-4.16h-1.73v-2.16h1.73v-2.59h2.7v2.59h2.38V72.68z"/>
	<path class="st1" d="M145.57,76.06c0.92,0,1.66,0.74,1.66,1.66c0,0.92-0.74,1.66-1.66,1.66s-1.66-0.74-1.66-1.66
		C143.92,76.8,144.65,76.06,145.57,76.06z M146.92,75.06h-2.7v-8.54h2.7V75.06z"/>
</g>
</svg>
