<svg width="223" height="38" viewBox="0 0 223 38" fill="none" xmlns="http://www.w3.org/2000/svg">
<path fill-rule="evenodd" clip-rule="evenodd" d="M50.9298 8.16045C52.2987 8.9746 53.4249 10.0955 54.316 11.5193H54.3198V0H62.9807V36.9208H56.1513V30.6537C55.9807 31.0741 55.7949 31.483 55.5863 31.8731C54.5284 33.8422 53.1026 35.3379 51.309 36.3566C49.5154 37.3752 47.4336 37.8864 45.0674 37.8864C43.0235 37.8864 41.1427 37.5115 39.4211 36.758C37.6995 36.0044 36.2207 34.9593 34.9845 33.615C33.7483 32.2745 32.7889 30.6878 32.1063 28.8626C31.4238 27.0374 31.0825 25.0683 31.0825 22.9553V21.7208C31.0825 19.6078 31.4048 17.6387 32.0495 15.8135C32.6979 13.9883 33.6194 12.3865 34.8214 11.0081C36.0235 9.6297 37.4644 8.55805 39.1519 7.78556C40.8355 7.01685 42.7163 6.6306 44.7981 6.6306C47.1643 6.6306 49.2082 7.13802 50.9298 8.16045ZM53.5387 27.2002C54.1985 26.0566 54.5322 24.6745 54.5322 23.0651H54.5359V21.077C54.5359 19.5018 54.1947 18.184 53.5121 17.1275C52.8333 16.0748 51.9346 15.2568 50.8236 14.685C49.7125 14.1132 48.5105 13.8254 47.2212 13.8254C45.7878 13.8254 44.5061 14.1852 43.3761 14.9009C42.2461 15.6166 41.3588 16.6087 40.7142 17.881C40.0695 19.1534 39.7472 20.5961 39.7472 22.3115C39.7472 24.0269 40.0695 25.5151 40.7142 26.7685C41.3588 28.0219 42.2537 28.9876 43.4027 29.6692C44.5479 30.3508 45.8409 30.6916 47.2743 30.6916C48.5636 30.6916 49.7656 30.3962 50.8767 29.8055C51.9877 29.2148 52.8751 28.3476 53.5387 27.2002ZM12.9572 7.00547C15.968 7.00547 18.5049 7.43338 20.5677 8.29297C22.6268 9.15256 24.1967 10.4476 25.2736 12.1857C26.3505 13.9239 26.889 16.1505 26.889 18.8731V36.9208H20.0596V31.2596C19.8245 32.0094 19.5325 32.7024 19.1723 33.3234C18.3684 34.7207 17.2535 35.7923 15.8391 36.5459C14.4209 37.2995 12.7638 37.6744 10.6479 37.6744C8.53197 37.6744 6.67769 37.2957 5.08126 36.5459C3.48483 35.7961 2.23727 34.7131 1.34236 33.2969C0.447454 31.8844 0 30.1917 0 28.2226C0 26.0755 0.557422 24.3109 1.66847 22.9325C2.77953 21.558 4.33803 20.5355 6.34778 19.8728C8.35754 19.2102 10.6706 18.8769 13.2871 18.8769H18.6111V18.8239C18.6111 17.2827 18.2508 16.1467 17.5341 15.4121C16.8175 14.6774 15.6685 14.3101 14.091 14.3101C13.2985 14.3101 12.2595 14.329 10.9702 14.3631C9.67715 14.401 8.34237 14.4464 6.96208 14.4995C5.5818 14.5563 4.33424 14.6168 3.22319 14.6888V7.43716C4.08397 7.36522 5.06988 7.29327 6.18094 7.22132C7.29199 7.14937 8.44096 7.09636 9.62406 7.05849C10.8072 7.02441 11.9182 7.00547 12.9572 7.00547ZM13.2227 31.714C14.1896 31.714 15.058 31.5436 15.8315 31.2028H15.8277C16.6013 30.862 17.2346 30.2826 17.7389 29.4571C18.2394 28.6316 18.5276 27.488 18.5997 26.0187V23.6558H13.2227C11.7172 23.6558 10.5607 24.0231 9.75299 24.7578C8.94529 25.4924 8.54334 26.4845 8.54334 27.7379C8.54334 28.9194 8.94529 29.8774 9.75299 30.6121C10.5607 31.3467 11.7172 31.714 13.2227 31.714ZM82.6126 29.7789H81.3536L75.0817 7.49008H66.2046L75.0286 36.9245H77.664H80.891H83.3634H86.378H88.6911L96.3282 7.49008H87.9896L82.6126 29.7789ZM99.9454 7.49008H108.606V36.9245H99.9454V7.49008ZM133.74 26.2915C133.581 27.0186 133.308 27.6661 132.94 28.2455C132.474 28.9801 131.837 29.5557 131.029 29.9647C130.225 30.3812 129.243 30.5819 128.098 30.5819C126.554 30.5819 125.307 30.2335 124.363 29.533C123.411 28.84 122.717 27.8555 122.285 26.5793C121.86 25.3108 121.64 23.8907 121.64 22.3079C121.64 20.6303 121.875 19.1535 122.342 17.8774C122.808 16.6088 123.513 15.6167 124.465 14.8972C125.417 14.1815 126.611 13.8218 128.041 13.8218C129.728 13.8218 131.033 14.28 131.969 15.1964C132.72 15.931 133.213 16.8171 133.448 17.8471C133.498 18.0326 133.532 18.2371 133.551 18.4378L141.753 16.5293C141.65 16.0446 141.518 15.5712 141.362 15.113C141.028 14.0944 140.562 13.1515 139.982 12.2692C138.761 10.4402 137.126 9.01638 135.086 7.99774C133.046 6.97911 130.691 6.46411 128.037 6.46411C125.599 6.46411 123.441 6.88065 121.56 7.69859C119.68 8.5241 118.095 9.65255 116.824 11.0839C115.554 12.5191 114.595 14.155 113.95 15.9991C113.305 17.8433 112.979 19.7707 112.979 21.7739V22.7926C112.979 24.7276 113.298 26.5983 113.923 28.4083C114.549 30.2108 115.493 31.8353 116.748 33.2705C118 34.6981 119.562 35.8417 121.42 36.7013C123.29 37.5609 125.512 37.9926 128.094 37.9926C130.676 37.9926 133.115 37.4738 135.196 36.44C137.271 35.3987 138.939 33.9559 140.194 32.1118C140.998 30.9265 141.574 29.6163 141.901 28.1887L140.429 27.8479L133.729 26.2877L133.74 26.2915ZM174.253 16.6465C174.735 18.1991 174.97 19.8425 174.97 21.5617L174.974 21.5655V24.4624H153.447C153.564 25.3295 153.765 26.1285 154.042 26.8556C154.546 28.1582 155.331 29.1731 156.408 29.8926C157.485 30.6083 158.888 30.9604 160.61 30.9604C162.187 30.9604 163.476 30.6613 164.478 30.0516C165.475 29.442 166.157 28.6998 166.518 27.8061L173.912 29.5253C173.446 30.809 172.774 31.9866 171.898 33.0621C170.643 34.6033 169.066 35.8075 167.17 36.6822C165.27 37.5645 163.124 38 160.61 38C158.096 38 155.881 37.5683 153.966 36.7087C152.051 35.8491 150.44 34.6904 149.154 33.2211C147.861 31.7519 146.883 30.116 146.215 28.3059C145.556 26.4959 145.222 24.6441 145.222 22.7432V21.6678C145.222 19.6986 145.556 17.8128 146.215 16.0028C146.883 14.1927 147.846 12.5758 149.124 11.1406C150.394 9.71299 151.972 8.57318 153.852 7.72874C155.741 6.89187 157.88 6.46775 160.284 6.46775C163.442 6.46775 166.104 7.17208 168.27 8.58833C170.442 10.0008 172.103 11.8449 173.248 14.1208C173.658 14.9349 173.995 15.7794 174.253 16.6465ZM154.099 17.4531C153.841 18.0893 153.64 18.7974 153.507 19.5737L153.504 19.5775H166.738C166.62 18.752 166.434 18.0098 166.169 17.3509C165.691 16.1164 164.955 15.1659 163.969 14.4994C162.984 13.8405 161.789 13.5073 160.284 13.5073C158.778 13.5073 157.508 13.8405 156.465 14.4994C155.426 15.1659 154.641 16.1505 154.099 17.4531Z" fill="#141414"/>
<path d="M215.688 36.5946H215.647C215.008 36.5946 214.518 36.3863 214.175 35.9697C213.832 35.5531 213.66 34.9518 213.66 34.1657V31.0414H214.629V34.3572C214.629 34.7805 214.743 35.1131 214.971 35.3549C215.2 35.5901 215.509 35.7077 215.9 35.7077C216.303 35.7077 216.633 35.58 216.888 35.3247C217.144 35.0627 217.271 34.7066 217.271 34.2564V31.0414H218.24V36.4333H217.473V34.1254H217.594C217.594 34.6562 217.524 35.1063 217.382 35.4759C217.241 35.8387 217.029 36.1175 216.747 36.3124C216.471 36.5005 216.118 36.5946 215.688 36.5946Z" fill="#6944EB"/>
<path d="M212.004 36.4333H211.238V34.8208H211.076V32.9563C211.076 32.5867 210.979 32.3079 210.784 32.1198C210.596 31.9317 210.316 31.8376 209.947 31.8376C209.738 31.8376 209.523 31.841 209.301 31.8477C209.079 31.8544 208.867 31.8611 208.666 31.8678C208.464 31.8745 208.289 31.8846 208.141 31.8981V31.0515C208.289 31.038 208.444 31.028 208.605 31.0212C208.773 31.0078 208.945 31.0011 209.119 31.0011C209.294 30.9944 209.462 30.991 209.624 30.991C210.175 30.991 210.626 31.0582 210.976 31.1926C211.325 31.3202 211.584 31.5319 211.752 31.8275C211.92 32.1231 212.004 32.5229 212.004 33.0268V36.4333ZM209.473 36.5744C209.069 36.5744 208.719 36.5072 208.423 36.3728C208.134 36.2318 207.909 36.0302 207.748 35.7681C207.593 35.5061 207.516 35.1903 207.516 34.8208C207.516 34.4378 207.6 34.1187 207.768 33.8633C207.943 33.608 208.195 33.4165 208.524 33.2889C208.854 33.1545 209.251 33.0873 209.715 33.0873H211.177V33.8129H209.674C209.284 33.8129 208.985 33.907 208.777 34.0951C208.568 34.2833 208.464 34.5251 208.464 34.8208C208.464 35.1164 208.568 35.3549 208.777 35.5363C208.985 35.7178 209.284 35.8085 209.674 35.8085C209.903 35.8085 210.121 35.7681 210.33 35.6875C210.538 35.6002 210.71 35.4591 210.844 35.2642C210.986 35.0627 211.063 34.7872 211.076 34.4378L211.339 34.8208C211.305 35.2038 211.211 35.5263 211.056 35.7883C210.908 36.0436 210.7 36.2385 210.431 36.3728C210.169 36.5072 209.849 36.5744 209.473 36.5744Z" fill="#6944EB"/>
<path d="M204.092 36.6147C203.621 36.6147 203.214 36.5341 202.871 36.3728C202.528 36.2116 202.249 35.9999 202.034 35.7379C201.819 35.4692 201.657 35.1702 201.55 34.8409C201.449 34.5117 201.398 34.1758 201.398 33.8331V33.6517C201.398 33.3023 201.449 32.963 201.55 32.6338C201.657 32.3046 201.819 32.0089 202.034 31.7469C202.249 31.4781 202.521 31.2665 202.851 31.112C203.187 30.9507 203.581 30.8701 204.031 30.8701C204.616 30.8701 205.097 30.9977 205.474 31.253C205.857 31.5016 206.139 31.8242 206.321 32.2206C206.509 32.617 206.603 33.0403 206.603 33.4904V33.9238H201.822V33.1982H205.897L205.675 33.5912C205.675 33.2082 205.615 32.879 205.494 32.6035C205.373 32.3214 205.191 32.103 204.949 31.9485C204.707 31.7939 204.401 31.7167 204.031 31.7167C203.648 31.7167 203.328 31.804 203.073 31.9787C202.824 32.1534 202.636 32.3919 202.508 32.6943C202.387 32.9966 202.326 33.346 202.326 33.7424C202.326 34.1254 202.387 34.4714 202.508 34.7805C202.636 35.0828 202.831 35.3247 203.093 35.5061C203.355 35.6808 203.688 35.7681 204.092 35.7681C204.515 35.7681 204.858 35.6741 205.121 35.486C205.39 35.2978 205.551 35.0795 205.605 34.8309H206.513C206.439 35.2004 206.291 35.5195 206.069 35.7883C205.847 36.0571 205.568 36.262 205.232 36.4031C204.895 36.5442 204.515 36.6147 204.092 36.6147Z" fill="#6944EB"/>
<path d="M198.691 36.4333H197.723V31.0515H198.489V33.2687H198.449C198.449 32.4826 198.62 31.9081 198.963 31.5453C199.313 31.1758 199.834 30.991 200.527 30.991H200.708V31.8578H200.365C199.828 31.8578 199.414 32.0022 199.125 32.2911C198.836 32.5733 198.691 32.9832 198.691 33.5207V36.4333Z" fill="#6944EB"/>
<path d="M193.297 36.5946H193.257C192.618 36.5946 192.127 36.3863 191.784 35.9697C191.441 35.5531 191.27 34.9518 191.27 34.1657V31.0414H192.238V34.3572C192.238 34.7805 192.352 35.1131 192.581 35.3549C192.81 35.5901 193.119 35.7077 193.509 35.7077C193.912 35.7077 194.242 35.58 194.497 35.3247C194.753 35.0627 194.881 34.7066 194.881 34.2564V31.0414H195.849V36.4333H195.082V34.1254H195.204C195.204 34.6562 195.133 35.1063 194.992 35.4759C194.85 35.8387 194.639 36.1175 194.356 36.3124C194.08 36.5005 193.727 36.5946 193.297 36.5946Z" fill="#6944EB"/>
<path d="M187.278 36.6147C186.834 36.6147 186.438 36.5173 186.088 36.3225C185.745 36.1276 185.473 35.8454 185.271 35.4759C185.069 35.0996 184.958 34.6495 184.938 34.1254H185.2V36.4333H184.434V29.0761H185.402V32.6539L185.059 33.3897C185.086 32.8051 185.204 32.3281 185.412 31.9585C185.621 31.589 185.893 31.3169 186.229 31.1422C186.572 30.9608 186.949 30.8701 187.359 30.8701C187.742 30.8701 188.092 30.944 188.408 31.0918C188.724 31.2329 188.996 31.4311 189.225 31.6864C189.454 31.935 189.628 32.2273 189.75 32.5632C189.871 32.8925 189.931 33.2486 189.931 33.6315V33.813C189.931 34.1959 189.867 34.5554 189.739 34.8913C189.618 35.2273 189.44 35.5263 189.205 35.7883C188.969 36.0436 188.687 36.2452 188.357 36.393C188.035 36.5408 187.675 36.6147 187.278 36.6147ZM187.167 35.7681C187.53 35.7681 187.846 35.6808 188.115 35.5061C188.384 35.3314 188.593 35.0929 188.741 34.7905C188.889 34.4815 188.963 34.1254 188.963 33.7222C188.963 33.3191 188.885 32.9664 188.731 32.664C188.583 32.3617 188.374 32.1299 188.105 31.9686C187.836 31.8006 187.524 31.7167 187.167 31.7167C186.844 31.7167 186.545 31.7906 186.269 31.9384C185.994 32.0795 185.772 32.2878 185.604 32.5632C185.442 32.832 185.362 33.1579 185.362 33.5408V34.0044C185.362 34.374 185.446 34.6898 185.614 34.9518C185.782 35.2138 186.004 35.4154 186.28 35.5565C186.555 35.6976 186.851 35.7681 187.167 35.7681Z" fill="#6944EB"/>
<path d="M221.309 25.2499H220.34V17.8927H221.309V25.2499ZM221.309 18.6586H219.594V17.8927H221.309V18.6586Z" fill="#6944EB"/>
<path d="M218.504 25.2499H217.738V23.6373H217.576V21.7728C217.576 21.4033 217.479 21.1245 217.284 20.9363C217.096 20.7482 216.816 20.6541 216.447 20.6541C216.238 20.6541 216.023 20.6575 215.801 20.6642C215.579 20.6709 215.367 20.6777 215.166 20.6844C214.964 20.6911 214.789 20.7012 214.641 20.7146V19.868C214.789 19.8546 214.944 19.8445 215.105 19.8378C215.273 19.8244 215.445 19.8176 215.619 19.8176C215.794 19.8109 215.962 19.8076 216.124 19.8076C216.675 19.8076 217.126 19.8748 217.476 20.0091C217.825 20.1368 218.084 20.3484 218.252 20.6441C218.42 20.9397 218.504 21.3395 218.504 21.8434V25.2499ZM215.973 25.391C215.569 25.391 215.219 25.3238 214.923 25.1894C214.634 25.0483 214.409 24.8467 214.248 24.5847C214.093 24.3227 214.016 24.0069 214.016 23.6373C214.016 23.2544 214.1 22.9352 214.268 22.6799C214.443 22.4246 214.695 22.2331 215.024 22.1054C215.354 21.971 215.751 21.9039 216.215 21.9039H217.677V22.6295H216.174C215.784 22.6295 215.485 22.7236 215.277 22.9117C215.068 23.0998 214.964 23.3417 214.964 23.6373C214.964 23.933 215.068 24.1715 215.277 24.3529C215.485 24.5343 215.784 24.625 216.174 24.625C216.403 24.625 216.621 24.5847 216.83 24.5041C217.038 24.4167 217.21 24.2756 217.344 24.0808C217.486 23.8792 217.563 23.6037 217.576 23.2544L217.839 23.6373C217.805 24.0203 217.711 24.3428 217.556 24.6049C217.408 24.8602 217.2 25.055 216.931 25.1894C216.669 25.3238 216.349 25.391 215.973 25.391Z" fill="#6944EB"/>
<path d="M212.704 25.2499H211.937V23.6373H211.776V21.7728C211.776 21.4033 211.678 21.1245 211.483 20.9363C211.295 20.7482 211.016 20.6541 210.646 20.6541C210.437 20.6541 210.222 20.6575 210 20.6642C209.778 20.6709 209.567 20.6777 209.365 20.6844C209.163 20.6911 208.988 20.7012 208.84 20.7146V19.868C208.988 19.8546 209.143 19.8445 209.304 19.8378C209.472 19.8244 209.644 19.8176 209.819 19.8176C209.994 19.8109 210.162 19.8076 210.323 19.8076C210.874 19.8076 211.325 19.8748 211.675 20.0091C212.024 20.1368 212.283 20.3484 212.451 20.6441C212.62 20.9397 212.704 21.3395 212.704 21.8434V25.2499ZM210.172 25.391C209.768 25.391 209.419 25.3238 209.123 25.1894C208.834 25.0483 208.608 24.8467 208.447 24.5847C208.292 24.3227 208.215 24.0069 208.215 23.6373C208.215 23.2544 208.299 22.9352 208.467 22.6799C208.642 22.4246 208.894 22.2331 209.224 22.1054C209.553 21.971 209.95 21.9039 210.414 21.9039H211.876V22.6295H210.373C209.983 22.6295 209.684 22.7236 209.476 22.9117C209.267 23.0998 209.163 23.3417 209.163 23.6373C209.163 23.933 209.267 24.1715 209.476 24.3529C209.684 24.5343 209.983 24.625 210.373 24.625C210.602 24.625 210.821 24.5847 211.029 24.5041C211.238 24.4167 211.409 24.2756 211.544 24.0808C211.685 23.8792 211.762 23.6037 211.776 23.2544L212.038 23.6373C212.004 24.0203 211.91 24.3428 211.755 24.6049C211.607 24.8602 211.399 25.055 211.13 25.1894C210.868 25.3238 210.548 25.391 210.172 25.391Z" fill="#6944EB"/>
<path d="M207.329 25.3103H206.502C206.099 25.3103 205.749 25.2532 205.453 25.139C205.164 25.0248 204.939 24.8299 204.777 24.5545C204.623 24.2723 204.545 23.8926 204.545 23.4156V18.2353H205.473V23.5365C205.473 23.8255 205.551 24.0505 205.705 24.2118C205.867 24.3663 206.092 24.4436 206.381 24.4436H207.329V25.3103ZM207.329 20.5937H203.617V19.868H207.329V20.5937Z" fill="#6944EB"/>
<path d="M202.53 25.2499H201.562V19.868H202.53V25.2499ZM202.53 20.634H200.734V19.868H202.53V20.634ZM201.834 19.0013C201.619 19.0013 201.457 18.9442 201.35 18.83C201.249 18.7157 201.198 18.5713 201.198 18.3966C201.198 18.2219 201.249 18.0774 201.35 17.9632C201.457 17.849 201.619 17.7919 201.834 17.7919C202.049 17.7919 202.207 17.849 202.308 17.9632C202.416 18.0774 202.469 18.2219 202.469 18.3966C202.469 18.5713 202.416 18.7157 202.308 18.83C202.207 18.9442 202.049 19.0013 201.834 19.0013Z" fill="#6944EB"/>
<path d="M196.531 27.3462C196.282 27.3462 196.03 27.3361 195.774 27.3159C195.526 27.2958 195.287 27.2689 195.058 27.2353V26.419C195.3 26.4525 195.552 26.4794 195.815 26.4996C196.084 26.5265 196.336 26.5399 196.571 26.5399C197.062 26.5399 197.452 26.4727 197.741 26.3383C198.037 26.2107 198.249 26.0057 198.377 25.7235C198.511 25.4481 198.579 25.092 198.579 24.6552V23.6273L198.901 22.8613C198.881 23.4055 198.767 23.8591 198.558 24.2219C198.35 24.578 198.078 24.8467 197.741 25.0281C197.412 25.2028 197.045 25.2902 196.642 25.2902C196.265 25.2902 195.919 25.2196 195.603 25.0785C195.294 24.9307 195.025 24.7292 194.796 24.4738C194.574 24.2185 194.399 23.9262 194.271 23.597C194.15 23.2611 194.09 22.9083 194.09 22.5388V22.3574C194.09 21.9811 194.154 21.6317 194.281 21.3092C194.409 20.98 194.587 20.6945 194.816 20.4526C195.045 20.2107 195.317 20.0226 195.633 19.8882C195.956 19.7538 196.309 19.6866 196.692 19.6866C197.143 19.6866 197.54 19.784 197.883 19.9789C198.226 20.167 198.495 20.4459 198.69 20.8154C198.891 21.1782 199.002 21.625 199.022 22.1558L198.74 22.1659V19.868H199.507V24.6149C199.507 25.2599 199.406 25.7807 199.204 26.1771C199.009 26.5802 198.693 26.8758 198.256 27.064C197.825 27.2521 197.25 27.3462 196.531 27.3462ZM196.823 24.4033C197.146 24.4033 197.439 24.3327 197.701 24.1916C197.97 24.0505 198.182 23.849 198.337 23.5869C198.498 23.3182 198.579 22.999 198.579 22.6295V22.1659C198.579 21.8031 198.495 21.4974 198.326 21.2488C198.165 21.0002 197.953 20.812 197.691 20.6844C197.429 20.5567 197.143 20.4929 196.834 20.4929C196.484 20.4929 196.175 20.5735 195.906 20.7348C195.637 20.896 195.428 21.1245 195.28 21.4201C195.132 21.709 195.058 22.0517 195.058 22.4481C195.058 22.8445 195.132 23.1905 195.28 23.4862C195.435 23.7818 195.643 24.0102 195.906 24.1715C196.175 24.326 196.481 24.4033 196.823 24.4033Z" fill="#6944EB"/>
<path d="M192.62 25.2499H191.651V19.868H192.62V25.2499ZM192.62 20.634H190.824V19.868H192.62V20.634ZM191.924 19.0013C191.709 19.0013 191.547 18.9442 191.44 18.83C191.339 18.7157 191.288 18.5713 191.288 18.3966C191.288 18.2219 191.339 18.0774 191.44 17.9632C191.547 17.849 191.709 17.7919 191.924 17.7919C192.139 17.7919 192.297 17.849 192.398 17.9632C192.505 18.0774 192.559 18.2219 192.559 18.3966C192.559 18.5713 192.505 18.7157 192.398 18.83C192.297 18.9442 192.139 19.0013 191.924 19.0013Z" fill="#6944EB"/>
<path d="M186.684 25.4313C186.301 25.4313 185.948 25.3607 185.625 25.2196C185.302 25.0785 185.02 24.8803 184.778 24.625C184.542 24.3697 184.357 24.0741 184.223 23.7381C184.095 23.4022 184.031 23.0393 184.031 22.6497V22.4682C184.031 22.0853 184.095 21.7258 184.223 21.3899C184.351 21.0539 184.529 20.7583 184.758 20.503C184.993 20.2476 185.269 20.0494 185.585 19.9083C185.907 19.7605 186.264 19.6866 186.654 19.6866C187.064 19.6866 187.437 19.774 187.774 19.9487C188.11 20.1166 188.386 20.382 188.601 20.7448C188.816 21.1077 188.937 21.578 188.964 22.1558L188.56 21.5108V17.8927H189.529V25.2499H188.762V22.8613H189.045C189.018 23.4727 188.89 23.9699 188.661 24.3529C188.433 24.7292 188.143 25.0046 187.794 25.1793C187.451 25.3473 187.081 25.4313 186.684 25.4313ZM186.815 24.5847C187.145 24.5847 187.444 24.5108 187.713 24.363C187.982 24.2152 188.197 24.0035 188.359 23.728C188.52 23.4458 188.601 23.1166 188.601 22.7404V22.2768C188.601 21.9072 188.517 21.5948 188.349 21.3395C188.187 21.0774 187.969 20.8792 187.693 20.7448C187.424 20.6038 187.128 20.5332 186.805 20.5332C186.449 20.5332 186.133 20.6172 185.857 20.7852C185.588 20.9531 185.376 21.1883 185.222 21.4906C185.074 21.793 185 22.1491 185 22.5589C185 22.9688 185.077 23.3283 185.232 23.6373C185.386 23.9397 185.601 24.1748 185.877 24.3428C186.153 24.5041 186.466 24.5847 186.815 24.5847Z" fill="#6944EB"/>
<path d="M221.253 13.8593H220.325V8.20536C220.325 7.60738 220.483 7.16729 220.799 6.8851C221.115 6.6029 221.579 6.46181 222.191 6.46181H222.856V7.26807H222.029C221.78 7.26807 221.589 7.33862 221.454 7.47972C221.32 7.6141 221.253 7.80223 221.253 8.04411V13.8593ZM222.957 9.26359H219.578V8.53795H222.957V9.26359Z" fill="#6944EB"/>
<path d="M216.299 14.0407C215.828 14.0407 215.421 13.9601 215.078 13.7988C214.735 13.6376 214.456 13.4259 214.241 13.1639C214.026 12.8951 213.864 12.5962 213.757 12.2669C213.656 11.9377 213.605 11.6018 213.605 11.2591V11.0777C213.605 10.7283 213.656 10.389 213.757 10.0598C213.864 9.73055 214.026 9.43492 214.241 9.17288C214.456 8.90413 214.729 8.69248 215.058 8.53795C215.394 8.37669 215.788 8.29607 216.238 8.29607C216.823 8.29607 217.304 8.42373 217.681 8.67904C218.064 8.92764 218.346 9.25015 218.528 9.64656C218.716 10.043 218.81 10.4663 218.81 10.9164V11.3498H214.029V10.6242H218.104L217.882 11.0172C217.882 10.6342 217.822 10.305 217.701 10.0295C217.58 9.74735 217.398 9.52898 217.156 9.37445C216.914 9.21991 216.608 9.14265 216.238 9.14265C215.855 9.14265 215.535 9.22999 215.28 9.40468C215.031 9.57938 214.843 9.8179 214.715 10.1202C214.594 10.4226 214.533 10.772 214.533 11.1684C214.533 11.5514 214.594 11.8974 214.715 12.2065C214.843 12.5088 215.038 12.7507 215.3 12.9321C215.562 13.1068 215.895 13.1941 216.299 13.1941C216.722 13.1941 217.065 13.1001 217.328 12.9119C217.597 12.7238 217.758 12.5055 217.812 12.2569H218.72C218.646 12.6264 218.498 12.9455 218.276 13.2143C218.054 13.4831 217.775 13.688 217.439 13.8291C217.102 13.9702 216.722 14.0407 216.299 14.0407Z" fill="#6944EB"/>
<path d="M212.135 13.8593H211.167V8.47747H212.135V13.8593ZM212.135 9.24343H210.34V8.47747H212.135V9.24343ZM211.439 7.61074C211.224 7.61074 211.063 7.55363 210.955 7.43941C210.854 7.32518 210.804 7.18073 210.804 7.00604C210.804 6.83135 210.854 6.68689 210.955 6.57267C211.063 6.45845 211.224 6.40134 211.439 6.40134C211.655 6.40134 211.813 6.45845 211.913 6.57267C212.021 6.68689 212.075 6.83135 212.075 7.00604C212.075 7.18073 212.021 7.32518 211.913 7.43941C211.813 7.55363 211.655 7.61074 211.439 7.61074Z" fill="#6944EB"/>
<path d="M209.532 13.9198H208.705C208.302 13.9198 207.952 13.8627 207.656 13.7484C207.367 13.6342 207.142 13.4394 206.98 13.1639C206.826 12.8817 206.748 12.5021 206.748 12.025V6.84478H207.676V12.146C207.676 12.4349 207.754 12.66 207.908 12.8212C208.07 12.9758 208.295 13.053 208.584 13.053H209.532V13.9198ZM209.532 9.20311H205.82V8.47747H209.532V9.20311Z" fill="#6944EB"/>
<path d="M204.833 13.8593H204.066V12.2468H203.905V10.3823C203.905 10.0127 203.807 9.7339 203.612 9.54577C203.424 9.35764 203.145 9.26358 202.775 9.26358C202.566 9.26358 202.351 9.26694 202.129 9.27366C201.907 9.28038 201.695 9.2871 201.494 9.29382C201.292 9.30053 201.117 9.31061 200.969 9.32405V8.47747C201.117 8.46403 201.272 8.45395 201.433 8.44724C201.601 8.4338 201.773 8.42708 201.948 8.42708C202.122 8.42036 202.291 8.417 202.452 8.417C203.003 8.417 203.454 8.48419 203.804 8.61857C204.153 8.74623 204.412 8.95787 204.58 9.2535C204.748 9.54913 204.833 9.94891 204.833 10.4528V13.8593ZM202.301 14.0004C201.897 14.0004 201.547 13.9332 201.252 13.7988C200.962 13.6577 200.737 13.4562 200.576 13.1941C200.421 12.9321 200.344 12.6163 200.344 12.2468C200.344 11.8638 200.428 11.5446 200.596 11.2893C200.771 11.034 201.023 10.8425 201.352 10.7149C201.682 10.5805 202.079 10.5133 202.543 10.5133H204.005V11.2389H202.502C202.112 11.2389 201.813 11.333 201.605 11.5211C201.396 11.7093 201.292 11.9511 201.292 12.2468C201.292 12.5424 201.396 12.7809 201.605 12.9623C201.813 13.1437 202.112 13.2344 202.502 13.2344C202.731 13.2344 202.95 13.1941 203.158 13.1135C203.367 13.0262 203.538 12.8851 203.673 12.6902C203.814 12.4886 203.891 12.2132 203.905 11.8638L204.167 12.2468C204.133 12.6297 204.039 12.9523 203.884 13.2143C203.736 13.4696 203.528 13.6645 203.259 13.7988C202.997 13.9332 202.677 14.0004 202.301 14.0004Z" fill="#6944EB"/>
<path d="M196.92 14.0407C196.449 14.0407 196.042 13.9601 195.699 13.7988C195.356 13.6376 195.077 13.4259 194.862 13.1639C194.647 12.8951 194.485 12.5962 194.378 12.2669C194.277 11.9377 194.227 11.6018 194.227 11.2591V11.0777C194.227 10.7283 194.277 10.389 194.378 10.0598C194.485 9.73055 194.647 9.43492 194.862 9.17288C195.077 8.90413 195.35 8.69248 195.679 8.53795C196.015 8.37669 196.409 8.29607 196.859 8.29607C197.444 8.29607 197.925 8.42373 198.302 8.67904C198.685 8.92764 198.968 9.25015 199.149 9.64656C199.337 10.043 199.432 10.4663 199.432 10.9164V11.3498H194.65V10.6242H198.725L198.504 11.0172C198.504 10.6342 198.443 10.305 198.322 10.0295C198.201 9.74735 198.019 9.52898 197.777 9.37445C197.535 9.21991 197.229 9.14265 196.859 9.14265C196.476 9.14265 196.157 9.22999 195.901 9.40468C195.652 9.57938 195.464 9.8179 195.336 10.1202C195.215 10.4226 195.155 10.772 195.155 11.1684C195.155 11.5514 195.215 11.8974 195.336 12.2065C195.464 12.5088 195.659 12.7507 195.921 12.9321C196.183 13.1068 196.516 13.1941 196.92 13.1941C197.343 13.1941 197.686 13.1001 197.949 12.9119C198.218 12.7238 198.379 12.5055 198.433 12.2569H199.341C199.267 12.6264 199.119 12.9455 198.897 13.2143C198.675 13.4831 198.396 13.688 198.06 13.8291C197.723 13.9702 197.343 14.0407 196.92 14.0407Z" fill="#6944EB"/>
<path d="M191.519 13.8593H190.551V8.47747H191.317V10.6947H191.277C191.277 9.90859 191.449 9.33413 191.792 8.97131C192.141 8.60177 192.662 8.417 193.355 8.417H193.537V9.28374H193.194C192.656 9.28374 192.242 9.42819 191.953 9.71711C191.664 9.9993 191.519 10.4092 191.519 10.9467V13.8593Z" fill="#6944EB"/>
<path d="M186.745 14.0407C186.281 14.0407 185.877 13.9601 185.534 13.7988C185.198 13.6376 184.919 13.4226 184.697 13.1538C184.475 12.8784 184.307 12.576 184.193 12.2468C184.085 11.9175 184.031 11.5883 184.031 11.2591V11.0777C184.031 10.735 184.085 10.3991 184.193 10.0699C184.307 9.74063 184.475 9.445 184.697 9.18296C184.926 8.9142 185.208 8.6992 185.544 8.53795C185.881 8.37669 186.274 8.29607 186.725 8.29607C187.175 8.29607 187.579 8.38005 187.935 8.54803C188.298 8.716 188.587 8.95452 188.802 9.26359C189.024 9.56594 189.149 9.9254 189.176 10.342H188.248C188.201 10.006 188.046 9.72719 187.784 9.50547C187.521 9.27702 187.168 9.1628 186.725 9.1628C186.341 9.1628 186.022 9.25015 185.766 9.42484C185.511 9.59953 185.319 9.83805 185.191 10.1404C185.064 10.4428 185 10.7854 185 11.1684C185 11.5379 185.064 11.8772 185.191 12.1863C185.319 12.4887 185.511 12.7305 185.766 12.9119C186.029 13.0866 186.355 13.174 186.745 13.174C187.047 13.174 187.31 13.1202 187.531 13.0127C187.753 12.9052 187.932 12.7608 188.066 12.5794C188.201 12.398 188.281 12.193 188.308 11.9646H189.236C189.216 12.3879 189.092 12.7541 188.863 13.0631C188.641 13.3722 188.345 13.6141 187.975 13.7888C187.612 13.9567 187.202 14.0407 186.745 14.0407Z" fill="#6944EB"/>
</svg>
