<svg width="250" height="44" viewBox="0 0 250 44" fill="none" xmlns="http://www.w3.org/2000/svg">
<path d="M241.719 43.1194H241.674C240.961 43.1194 240.413 42.8826 240.03 42.4088C239.647 41.9351 239.455 41.2512 239.455 40.3572V36.8042H240.537V40.575C240.537 41.0564 240.664 41.4346 240.92 41.7097C241.175 41.9771 241.52 42.1108 241.956 42.1108C242.407 42.1108 242.775 41.9657 243.06 41.6753C243.345 41.3773 243.488 40.9723 243.488 40.4604V36.8042H244.57V42.9361H243.713V40.3114H243.849C243.849 40.915 243.77 41.427 243.612 41.8472C243.454 42.2598 243.218 42.5769 242.902 42.7985C242.594 43.0125 242.2 43.1194 241.719 43.1194Z" fill="#F4F3F0"/>
<path d="M237.607 42.9362H236.751V41.1024H236.57V38.982C236.57 38.5618 236.462 38.2447 236.244 38.0307C236.033 37.8168 235.722 37.7098 235.309 37.7098C235.076 37.7098 234.836 37.7136 234.588 37.7213C234.34 37.7289 234.103 37.7366 233.878 37.7442C233.653 37.7519 233.457 37.7633 233.292 37.7786V36.8158C233.457 36.8006 233.63 36.7891 233.81 36.7815C233.998 36.7662 234.19 36.7585 234.385 36.7585C234.58 36.7509 234.768 36.7471 234.948 36.7471C235.564 36.7471 236.067 36.8235 236.458 36.9763C236.848 37.1215 237.137 37.3622 237.325 37.6984C237.513 38.0346 237.607 38.4892 237.607 39.0623V42.9362ZM234.779 43.0967C234.329 43.0967 233.938 43.0203 233.608 42.8675C233.285 42.707 233.033 42.4778 232.853 42.1798C232.68 41.8818 232.594 41.5227 232.594 41.1024C232.594 40.6669 232.688 40.3039 232.875 40.0136C233.071 39.7232 233.352 39.5055 233.72 39.3603C234.088 39.2075 234.531 39.131 235.05 39.131H236.683V39.9563H235.005C234.569 39.9563 234.235 40.0632 234.002 40.2772C233.769 40.4911 233.653 40.7662 233.653 41.1024C233.653 41.4386 233.769 41.7099 234.002 41.9162C234.235 42.1225 234.569 42.2256 235.005 42.2256C235.26 42.2256 235.504 42.1798 235.737 42.0881C235.97 41.9888 236.161 41.8283 236.311 41.6067C236.469 41.3775 236.555 41.0642 236.57 40.6669L236.863 41.1024C236.826 41.5379 236.721 41.9047 236.548 42.2027C236.383 42.4931 236.15 42.7147 235.849 42.8675C235.557 43.0203 235.2 43.0967 234.779 43.0967Z" fill="#F4F3F0"/>
<path d="M228.77 43.1424C228.244 43.1424 227.789 43.0507 227.406 42.8673C227.023 42.6839 226.712 42.4432 226.471 42.1452C226.231 41.8396 226.051 41.4996 225.931 41.1252C225.818 40.7508 225.762 40.3687 225.762 39.979V39.7727C225.762 39.3754 225.818 38.9895 225.931 38.6151C226.051 38.2407 226.231 37.9045 226.471 37.6065C226.712 37.3009 227.016 37.0602 227.384 36.8845C227.759 36.7011 228.199 36.6094 228.702 36.6094C229.355 36.6094 229.892 36.7546 230.313 37.0449C230.741 37.3276 231.056 37.6944 231.259 38.1452C231.469 38.596 231.575 39.0774 231.575 39.5893V40.0822H226.235V39.257H230.786L230.538 39.704C230.538 39.2684 230.471 38.894 230.335 38.5807C230.2 38.2598 229.997 38.0115 229.727 37.8357C229.457 37.66 229.115 37.5721 228.702 37.5721C228.274 37.5721 227.917 37.6715 227.632 37.8701C227.354 38.0688 227.144 38.3401 227.001 38.6839C226.866 39.0277 226.798 39.4251 226.798 39.8759C226.798 40.3114 226.866 40.7049 227.001 41.0564C227.144 41.4003 227.361 41.6753 227.654 41.8816C227.947 42.0803 228.319 42.1796 228.77 42.1796C229.243 42.1796 229.626 42.0727 229.919 41.8587C230.219 41.6448 230.399 41.3964 230.459 41.1137H231.473C231.391 41.534 231.225 41.8969 230.978 42.2026C230.73 42.5082 230.418 42.7412 230.043 42.9017C229.667 43.0622 229.243 43.1424 228.77 43.1424Z" fill="#F4F3F0"/>
<path d="M222.74 42.9362H221.658V36.8158H222.514V39.3374H222.469C222.469 38.4434 222.661 37.7901 223.044 37.3774C223.434 36.9572 224.016 36.7471 224.79 36.7471H224.993V37.7328H224.61C224.009 37.7328 223.547 37.897 223.224 38.2256C222.901 38.5465 222.74 39.0126 222.74 39.6239V42.9362Z" fill="#F4F3F0"/>
<path d="M216.714 43.1194H216.668C215.955 43.1194 215.407 42.8826 215.024 42.4088C214.641 41.9351 214.449 41.2512 214.449 40.3572V36.8042H215.531V40.575C215.531 41.0564 215.658 41.4346 215.914 41.7097C216.169 41.9771 216.515 42.1108 216.95 42.1108C217.401 42.1108 217.769 41.9657 218.054 41.6753C218.34 41.3773 218.482 40.9723 218.482 40.4604V36.8042H219.564V42.9361H218.708V40.3114H218.843C218.843 40.915 218.764 41.427 218.606 41.8472C218.448 42.2598 218.212 42.5769 217.896 42.7985C217.588 43.0125 217.194 43.1194 216.714 43.1194Z" fill="#F4F3F0"/>
<path d="M209.995 43.1425C209.5 43.1425 209.056 43.0317 208.666 42.8101C208.283 42.5885 207.979 42.2676 207.753 41.8473C207.528 41.4194 207.404 40.9075 207.382 40.3115H207.675V42.9362H206.818V34.5693H207.9V38.6381L207.517 39.4748C207.547 38.8101 207.678 38.2676 207.911 37.8473C208.144 37.427 208.448 37.1176 208.824 36.9189C209.207 36.7126 209.627 36.6095 210.085 36.6095C210.513 36.6095 210.904 36.6935 211.257 36.8616C211.61 37.0221 211.914 37.2475 212.169 37.5378C212.425 37.8206 212.62 38.1529 212.755 38.535C212.89 38.9094 212.958 39.3144 212.958 39.7499V39.9562C212.958 40.3917 212.887 40.8005 212.744 41.1826C212.609 41.5646 212.41 41.9046 212.147 42.2026C211.884 42.493 211.569 42.7222 211.201 42.8903C210.84 43.0584 210.438 43.1425 209.995 43.1425ZM209.871 42.1797C210.277 42.1797 210.63 42.0804 210.93 41.8817C211.231 41.6831 211.463 41.4118 211.629 41.068C211.794 40.7165 211.876 40.3115 211.876 39.8531C211.876 39.3946 211.79 38.9934 211.617 38.6496C211.452 38.3058 211.219 38.0421 210.919 37.8588C210.619 37.6677 210.269 37.5722 209.871 37.5722C209.511 37.5722 209.177 37.6563 208.869 37.8244C208.561 37.9848 208.313 38.2217 208.125 38.535C207.945 38.8406 207.855 39.2112 207.855 39.6467V40.174C207.855 40.5942 207.949 40.9533 208.136 41.2513C208.324 41.5493 208.572 41.7786 208.88 41.939C209.188 42.0995 209.518 42.1797 209.871 42.1797Z" fill="#F4F3F0"/>
<path d="M248.001 30.2179H246.92V21.8511H248.001V30.2179ZM248.001 22.7221H246.086V21.8511H248.001V22.7221Z" fill="#F4F3F0"/>
<path d="M244.867 30.218H244.01V28.3841H243.83V26.2638C243.83 25.8435 243.721 25.5264 243.503 25.3125C243.293 25.0985 242.982 24.9916 242.568 24.9916C242.336 24.9916 242.095 24.9954 241.847 25.003C241.6 25.0107 241.363 25.0183 241.138 25.026C240.912 25.0336 240.717 25.0451 240.552 25.0603V24.0976C240.717 24.0823 240.89 24.0708 241.07 24.0632C241.258 24.0479 241.449 24.0403 241.645 24.0403C241.84 24.0326 242.028 24.0288 242.208 24.0288C242.824 24.0288 243.327 24.1052 243.718 24.258C244.108 24.4032 244.397 24.6439 244.585 24.9801C244.773 25.3163 244.867 25.7709 244.867 26.344V30.218ZM242.039 30.3784C241.588 30.3784 241.198 30.302 240.867 30.1492C240.544 29.9887 240.293 29.7595 240.113 29.4615C239.94 29.1635 239.854 28.8044 239.854 28.3841C239.854 27.9486 239.947 27.5857 240.135 27.2953C240.33 27.005 240.612 26.7872 240.98 26.642C241.348 26.4892 241.791 26.4128 242.309 26.4128H243.943V27.238H242.264C241.829 27.238 241.494 27.345 241.262 27.5589C241.029 27.7729 240.912 28.0479 240.912 28.3841C240.912 28.7204 241.029 28.9916 241.262 29.1979C241.494 29.4042 241.829 29.5074 242.264 29.5074C242.52 29.5074 242.764 29.4615 242.997 29.3698C243.229 29.2705 243.421 29.11 243.571 28.8885C243.729 28.6592 243.815 28.3459 243.83 27.9486L244.123 28.3841C244.086 28.8197 243.98 29.1864 243.808 29.4844C243.642 29.7748 243.41 29.9964 243.109 30.1492C242.816 30.302 242.46 30.3784 242.039 30.3784Z" fill="#F4F3F0"/>
<path d="M238.386 30.218H237.53V28.3841H237.35V26.2638C237.35 25.8435 237.241 25.5264 237.023 25.3125C236.813 25.0985 236.501 24.9916 236.088 24.9916C235.855 24.9916 235.615 24.9954 235.367 25.003C235.119 25.0107 234.883 25.0183 234.657 25.026C234.432 25.0336 234.237 25.0451 234.071 25.0603V24.0976C234.237 24.0823 234.409 24.0708 234.59 24.0632C234.777 24.0479 234.969 24.0403 235.164 24.0403C235.359 24.0326 235.547 24.0288 235.727 24.0288C236.343 24.0288 236.847 24.1052 237.237 24.258C237.628 24.4032 237.917 24.6439 238.104 24.9801C238.292 25.3163 238.386 25.7709 238.386 26.344V30.218ZM235.559 30.3784C235.108 30.3784 234.717 30.302 234.387 30.1492C234.064 29.9887 233.812 29.7595 233.632 29.4615C233.459 29.1635 233.373 28.8044 233.373 28.3841C233.373 27.9486 233.467 27.5857 233.655 27.2953C233.85 27.005 234.132 26.7872 234.5 26.642C234.868 26.4892 235.311 26.4128 235.829 26.4128H237.462V27.238H235.784C235.348 27.238 235.014 27.345 234.781 27.5589C234.548 27.7729 234.432 28.0479 234.432 28.3841C234.432 28.7204 234.548 28.9916 234.781 29.1979C235.014 29.4042 235.348 29.5074 235.784 29.5074C236.039 29.5074 236.283 29.4615 236.516 29.3698C236.749 29.2705 236.94 29.11 237.091 28.8885C237.248 28.6592 237.335 28.3459 237.35 27.9486L237.643 28.3841C237.605 28.8197 237.5 29.1864 237.327 29.4844C237.162 29.7748 236.929 29.9964 236.629 30.1492C236.336 30.302 235.979 30.3784 235.559 30.3784Z" fill="#F4F3F0"/>
<path d="M232.384 30.2866H231.46C231.01 30.2866 230.619 30.2217 230.289 30.0918C229.966 29.9619 229.714 29.7403 229.534 29.427C229.361 29.1061 229.275 28.6744 229.275 28.1319V22.2407H230.311V28.2694C230.311 28.598 230.397 28.854 230.57 29.0373C230.75 29.2131 231.002 29.301 231.325 29.301H232.384V30.2866ZM232.384 24.9227H228.238V24.0975H232.384V24.9227Z" fill="#F4F3F0"/>
<path d="M227.027 30.2178H225.945V24.0974H227.027V30.2178ZM227.027 24.9684H225.021V24.0974H227.027V24.9684ZM226.249 23.1117C226.009 23.1117 225.829 23.0468 225.709 22.9169C225.596 22.787 225.54 22.6227 225.54 22.424C225.54 22.2253 225.596 22.0611 225.709 21.9312C225.829 21.8013 226.009 21.7363 226.249 21.7363C226.49 21.7363 226.666 21.8013 226.779 21.9312C226.899 22.0611 226.959 22.2253 226.959 22.424C226.959 22.6227 226.899 22.787 226.779 22.9169C226.666 23.0468 226.49 23.1117 226.249 23.1117Z" fill="#F4F3F0"/>
<path d="M220.326 32.6023C220.048 32.6023 219.766 32.5908 219.481 32.5679C219.203 32.545 218.936 32.5144 218.681 32.4762V31.5478C218.951 31.586 219.233 31.6166 219.526 31.6395C219.826 31.6701 220.108 31.6854 220.371 31.6854C220.919 31.6854 221.355 31.609 221.678 31.4561C222.008 31.311 222.245 31.0779 222.387 30.757C222.538 30.4437 222.613 30.0387 222.613 29.5421V28.373L222.973 27.502C222.951 28.1209 222.823 28.6366 222.59 29.0492C222.357 29.4542 222.053 29.7599 221.678 29.9662C221.31 30.1648 220.9 30.2642 220.45 30.2642C220.029 30.2642 219.642 30.1839 219.289 30.0235C218.944 29.8554 218.644 29.6261 218.388 29.3358C218.14 29.0454 217.945 28.713 217.802 28.3386C217.667 27.9566 217.6 27.5554 217.6 27.1352V26.9289C217.6 26.501 217.671 26.1037 217.814 25.7369C217.956 25.3625 218.155 25.0377 218.411 24.7627C218.666 24.4876 218.97 24.2736 219.323 24.1208C219.684 23.968 220.078 23.8916 220.506 23.8916C221.009 23.8916 221.452 24.0024 221.835 24.224C222.218 24.4379 222.519 24.755 222.737 25.1753C222.962 25.5879 223.086 26.096 223.108 26.6997L222.793 26.7111V24.0979H223.649V29.4962C223.649 30.2298 223.536 30.8219 223.311 31.2728C223.093 31.7312 222.74 32.0674 222.252 32.2814C221.772 32.4953 221.129 32.6023 220.326 32.6023ZM220.653 29.2555C221.013 29.2555 221.34 29.1753 221.633 29.0149C221.933 28.8544 222.17 28.6252 222.342 28.3272C222.523 28.0215 222.613 27.6586 222.613 27.2383V26.7111C222.613 26.2985 222.519 25.9508 222.331 25.6681C222.151 25.3854 221.914 25.1715 221.621 25.0263C221.328 24.8811 221.009 24.8085 220.664 24.8085C220.273 24.8085 219.928 24.9002 219.627 25.0836C219.327 25.267 219.094 25.5268 218.929 25.863C218.764 26.1915 218.681 26.5812 218.681 27.032C218.681 27.4828 218.764 27.8764 218.929 28.2126C219.102 28.5488 219.334 28.8086 219.627 28.9919C219.928 29.1677 220.269 29.2555 220.653 29.2555Z" fill="#F4F3F0"/>
<path d="M215.958 30.2178H214.877V24.0974H215.958V30.2178ZM215.958 24.9684H213.953V24.0974H215.958V24.9684ZM215.181 23.1117C214.941 23.1117 214.76 23.0468 214.64 22.9169C214.528 22.787 214.471 22.6227 214.471 22.424C214.471 22.2253 214.528 22.0611 214.64 21.9312C214.76 21.8013 214.941 21.7363 215.181 21.7363C215.421 21.7363 215.598 21.8013 215.711 21.9312C215.831 22.0611 215.891 22.2253 215.891 22.424C215.891 22.6227 215.831 22.787 215.711 22.9169C215.598 23.0468 215.421 23.1117 215.181 23.1117Z" fill="#F4F3F0"/>
<path d="M209.33 30.4242C208.902 30.4242 208.508 30.344 208.147 30.1835C207.787 30.0231 207.471 29.7977 207.201 29.5073C206.938 29.217 206.731 28.8807 206.581 28.4987C206.439 28.1167 206.367 27.704 206.367 27.2609V27.0546C206.367 26.619 206.439 26.2102 206.581 25.8282C206.724 25.4461 206.923 25.1099 207.178 24.8196C207.441 24.5292 207.749 24.3038 208.102 24.1434C208.463 23.9753 208.861 23.8912 209.296 23.8912C209.754 23.8912 210.171 23.9905 210.547 24.1892C210.922 24.3802 211.23 24.682 211.47 25.0947C211.711 25.5073 211.846 26.0421 211.876 26.6993L211.425 25.9657V21.8511H212.507V30.2179H211.651V27.5016H211.966C211.936 28.1969 211.793 28.7623 211.538 29.1978C211.283 29.6257 210.96 29.939 210.569 30.1377C210.186 30.3287 209.773 30.4242 209.33 30.4242ZM209.476 29.4615C209.844 29.4615 210.179 29.3774 210.479 29.2093C210.779 29.0412 211.02 28.8005 211.2 28.4872C211.38 28.1663 211.47 27.7919 211.47 27.364V26.8368C211.47 26.4165 211.376 26.0612 211.189 25.7709C211.008 25.4729 210.764 25.2475 210.456 25.0947C210.156 24.9342 209.826 24.854 209.465 24.854C209.067 24.854 208.714 24.9495 208.406 25.1405C208.106 25.3315 207.869 25.599 207.696 25.9428C207.531 26.2866 207.449 26.6916 207.449 27.1577C207.449 27.6238 207.535 28.0326 207.708 28.3841C207.88 28.7279 208.121 28.9954 208.429 29.1864C208.737 29.3698 209.086 29.4615 209.476 29.4615Z" fill="#F4F3F0"/>
<path d="M247.936 17.2642H246.9V10.8344C246.9 10.1543 247.077 9.65386 247.43 9.33294C247.782 9.01202 248.301 8.85156 248.984 8.85156H249.728V9.76848H248.804C248.526 9.76848 248.312 9.84871 248.162 10.0092C248.012 10.162 247.936 10.3759 247.936 10.651V17.2642ZM249.84 12.0378H246.066V11.2126H249.84V12.0378Z" fill="#F4F3F0"/>
<path d="M242.4 17.4705C241.875 17.4705 241.42 17.3788 241.037 17.1954C240.654 17.0121 240.343 16.7714 240.102 16.4734C239.862 16.1677 239.682 15.8277 239.562 15.4533C239.449 15.0789 239.393 14.6968 239.393 14.3072V14.1009C239.393 13.7035 239.449 13.3177 239.562 12.9432C239.682 12.5688 239.862 12.2326 240.102 11.9346C240.343 11.629 240.647 11.3883 241.015 11.2126C241.39 11.0292 241.83 10.9375 242.333 10.9375C242.986 10.9375 243.523 11.0827 243.944 11.373C244.372 11.6557 244.687 12.0225 244.89 12.4733C245.1 12.9241 245.205 13.4055 245.205 13.9175V14.4103H239.866V13.5851H244.417L244.169 14.0321C244.169 13.5966 244.101 13.2221 243.966 12.9089C243.831 12.5879 243.628 12.3396 243.358 12.1639C243.088 11.9881 242.746 11.9003 242.333 11.9003C241.905 11.9003 241.548 11.9996 241.263 12.1983C240.985 12.3969 240.774 12.6682 240.632 13.012C240.497 13.3559 240.429 13.7532 240.429 14.204C240.429 14.6395 240.497 15.033 240.632 15.3845C240.774 15.7284 240.992 16.0034 241.285 16.2098C241.578 16.4084 241.95 16.5078 242.4 16.5078C242.874 16.5078 243.257 16.4008 243.549 16.1868C243.85 15.9729 244.03 15.7246 244.09 15.4418H245.104C245.021 15.8621 244.856 16.225 244.608 16.5307C244.361 16.8363 244.049 17.0694 243.673 17.2298C243.298 17.3903 242.874 17.4705 242.4 17.4705Z" fill="#F4F3F0"/>
<path d="M237.753 17.2642H236.672V11.1438H237.753V17.2642ZM237.753 12.0148H235.748V11.1438H237.753V12.0148ZM236.976 10.1581C236.736 10.1581 236.555 10.0931 236.435 9.96324C236.323 9.83335 236.266 9.66906 236.266 9.4704C236.266 9.27174 236.323 9.10745 236.435 8.97756C236.555 8.84766 236.736 8.78271 236.976 8.78271C237.216 8.78271 237.393 8.84766 237.505 8.97756C237.626 9.10745 237.686 9.27174 237.686 9.4704C237.686 9.66906 237.626 9.83335 237.505 9.96324C237.393 10.0931 237.216 10.1581 236.976 10.1581Z" fill="#F4F3F0"/>
<path d="M234.849 17.333H233.925C233.474 17.333 233.084 17.2681 232.753 17.1382C232.43 17.0083 232.179 16.7867 231.999 16.4734C231.826 16.1525 231.74 15.7208 231.74 15.1783V9.28711H232.776V15.3158C232.776 15.6444 232.862 15.9004 233.035 16.0837C233.215 16.2595 233.467 16.3473 233.79 16.3473H234.849V17.333ZM234.849 11.9691H230.703V11.1439H234.849V11.9691Z" fill="#F4F3F0"/>
<path d="M229.597 17.2644H228.741V15.4305H228.561V13.3102C228.561 12.8899 228.452 12.5728 228.234 12.3589C228.024 12.1449 227.712 12.038 227.299 12.038C227.066 12.038 226.826 12.0418 226.578 12.0494C226.33 12.0571 226.094 12.0647 225.868 12.0723C225.643 12.08 225.448 12.0914 225.282 12.1067V11.144C225.448 11.1287 225.62 11.1172 225.801 11.1096C225.988 11.0943 226.18 11.0867 226.375 11.0867C226.57 11.079 226.758 11.0752 226.938 11.0752C227.554 11.0752 228.057 11.1516 228.448 11.3044C228.839 11.4496 229.128 11.6903 229.315 12.0265C229.503 12.3627 229.597 12.8173 229.597 13.3904V17.2644ZM226.769 17.4248C226.319 17.4248 225.928 17.3484 225.598 17.1956C225.275 17.0351 225.023 16.8059 224.843 16.5079C224.67 16.2099 224.584 15.8508 224.584 15.4305C224.584 14.995 224.678 14.6321 224.866 14.3417C225.061 14.0513 225.343 13.8336 225.711 13.6884C226.079 13.5356 226.522 13.4592 227.04 13.4592H228.673V14.2844H226.995C226.559 14.2844 226.225 14.3914 225.992 14.6053C225.759 14.8193 225.643 15.0943 225.643 15.4305C225.643 15.7667 225.759 16.038 225.992 16.2443C226.225 16.4506 226.559 16.5538 226.995 16.5538C227.25 16.5538 227.494 16.5079 227.727 16.4162C227.96 16.3169 228.151 16.1564 228.302 15.9348C228.459 15.7056 228.546 15.3923 228.561 14.995L228.854 15.4305C228.816 15.8661 228.711 16.2328 228.538 16.5308C228.373 16.8212 228.14 17.0428 227.84 17.1956C227.547 17.3484 227.19 17.4248 226.769 17.4248Z" fill="#F4F3F0"/>
<path d="M220.762 17.4705C220.236 17.4705 219.782 17.3788 219.399 17.1954C219.016 17.0121 218.704 16.7714 218.464 16.4734C218.223 16.1677 218.043 15.8277 217.923 15.4533C217.81 15.0789 217.754 14.6968 217.754 14.3072V14.1009C217.754 13.7035 217.81 13.3177 217.923 12.9432C218.043 12.5688 218.223 12.2326 218.464 11.9346C218.704 11.629 219.008 11.3883 219.376 11.2126C219.752 11.0292 220.191 10.9375 220.694 10.9375C221.348 10.9375 221.885 11.0827 222.305 11.373C222.733 11.6557 223.049 12.0225 223.251 12.4733C223.462 12.9241 223.567 13.4055 223.567 13.9175V14.4103H218.227V13.5851H222.778L222.53 14.0321C222.53 13.5966 222.463 13.2221 222.328 12.9089C222.192 12.5879 221.99 12.3396 221.719 12.1639C221.449 11.9881 221.107 11.9003 220.694 11.9003C220.266 11.9003 219.909 11.9996 219.624 12.1983C219.346 12.3969 219.136 12.6682 218.993 13.012C218.858 13.3559 218.79 13.7532 218.79 14.204C218.79 14.6395 218.858 15.033 218.993 15.3845C219.136 15.7284 219.354 16.0034 219.646 16.2098C219.939 16.4084 220.311 16.5078 220.762 16.5078C221.235 16.5078 221.618 16.4008 221.911 16.1868C222.211 15.9729 222.391 15.7246 222.452 15.4418H223.465C223.383 15.8621 223.218 16.225 222.97 16.5307C222.722 16.8363 222.41 17.0694 222.035 17.2298C221.659 17.3903 221.235 17.4705 220.762 17.4705Z" fill="#F4F3F0"/>
<path d="M214.732 17.2644H213.65V11.144H214.507V13.6655H214.461C214.461 12.7715 214.653 12.1182 215.036 11.7056C215.427 11.2853 216.009 11.0752 216.782 11.0752H216.985V12.0609H216.602C216.001 12.0609 215.539 12.2252 215.216 12.5537C214.893 12.8746 214.732 13.3407 214.732 13.952V17.2644Z" fill="#F4F3F0"/>
<path d="M209.398 17.4705C208.879 17.4705 208.429 17.3788 208.046 17.1954C207.67 17.0121 207.359 16.7675 207.111 16.4619C206.863 16.1486 206.675 15.8048 206.547 15.4304C206.427 15.056 206.367 14.6816 206.367 14.3072V14.1009C206.367 13.7112 206.427 13.3291 206.547 12.9547C206.675 12.5803 206.863 12.2441 207.111 11.9461C207.366 11.6405 207.681 11.396 208.057 11.2126C208.432 11.0292 208.872 10.9375 209.375 10.9375C209.878 10.9375 210.329 11.033 210.727 11.224C211.132 11.4151 211.455 11.6863 211.696 12.0378C211.944 12.3816 212.082 12.7904 212.113 13.2642H211.076C211.024 12.8821 210.851 12.565 210.558 12.3129C210.265 12.0531 209.871 11.9232 209.375 11.9232C208.947 11.9232 208.59 12.0225 208.305 12.2212C208.019 12.4198 207.805 12.6911 207.663 13.0349C207.52 13.3788 207.449 13.7685 207.449 14.204C207.449 14.6243 207.52 15.0101 207.663 15.3616C207.805 15.7055 208.019 15.9805 208.305 16.1868C208.598 16.3855 208.962 16.4848 209.398 16.4848C209.736 16.4848 210.028 16.4237 210.276 16.3014C210.524 16.1792 210.723 16.0149 210.873 15.8086C211.024 15.6023 211.114 15.3693 211.144 15.1095H212.18C212.158 15.5908 212.019 16.0073 211.763 16.3588C211.515 16.7102 211.185 16.9853 210.772 17.184C210.366 17.375 209.908 17.4705 209.398 17.4705Z" fill="#F4F3F0"/>
<path fill-rule="evenodd" clip-rule="evenodd" d="M57.6205 9.14083C59.1466 10.0528 60.4022 11.3083 61.3957 12.9032H61.3999V0H71.0558V41.3564H63.4419V34.3364C63.2516 34.8073 63.0445 35.2654 62.812 35.7023C61.6325 37.9079 60.0429 39.5834 58.0432 40.7244C56.0435 41.8654 53.7226 42.4381 51.0845 42.4381C48.8059 42.4381 46.709 42.0181 44.7896 41.174C42.8703 40.3299 41.2215 39.1592 39.8433 37.6534C38.4651 36.1519 37.3955 34.3746 36.6345 32.3301C35.8736 30.2856 35.4931 28.08 35.4931 25.7131V24.3303C35.4931 21.9634 35.8524 19.7578 36.5711 17.7133C37.294 15.6688 38.3214 13.8746 39.6615 12.3306C41.0017 10.7866 42.6082 9.58621 44.4895 8.7209C46.3665 7.85984 48.4634 7.42719 50.7844 7.42719C53.4224 7.42719 55.7011 7.99558 57.6205 9.14083ZM60.5291 30.468C61.2647 29.187 61.6367 27.6388 61.6367 25.8361H61.6409V23.6092C61.6409 21.8447 61.2604 20.3686 60.4995 19.1851C59.7427 18.006 58.7408 17.0897 57.5021 16.4493C56.2634 15.8088 54.9232 15.4864 53.4858 15.4864C51.8878 15.4864 50.4589 15.8894 49.199 16.691C47.9392 17.4927 46.9499 18.604 46.2312 20.0292C45.5125 21.4544 45.1532 23.0705 45.1532 24.992C45.1532 26.9135 45.5125 28.5805 46.2312 29.9845C46.9499 31.3885 47.9477 32.4701 49.2286 33.2336C50.5054 33.9971 51.947 34.3789 53.545 34.3789C54.9824 34.3789 56.3226 34.048 57.5613 33.3863C58.8 32.7246 59.7892 31.7533 60.5291 30.468ZM15.2856 7.84717C18.6424 7.84717 21.4706 8.32648 23.7705 9.28935C26.0661 10.2522 27.8163 11.7029 29.0169 13.6498C30.2176 15.5967 30.8179 18.0908 30.8179 21.1406V41.3565H23.204V35.0152C22.9419 35.855 22.6163 36.6313 22.2147 37.3269C21.3184 38.8921 20.0755 40.0925 18.4986 40.9366C16.9175 41.7807 15.07 42.2006 12.711 42.2006C10.352 42.2006 8.28469 41.7764 6.50486 40.9366C4.72503 40.0967 3.33414 38.8836 2.33642 37.2972C1.3387 35.715 0.839844 33.819 0.839844 31.6133C0.839844 29.2083 1.4613 27.2317 2.7 25.6877C3.93869 24.148 5.67624 23.0027 7.91688 22.2604C10.1575 21.5181 12.7364 21.1449 15.6534 21.1449H21.589V21.0855C21.589 19.3591 21.1874 18.0866 20.3884 17.2637C19.5893 16.4408 18.3084 16.0294 16.5497 16.0294C15.6661 16.0294 14.5077 16.0506 13.0704 16.0888C11.6287 16.1312 10.1406 16.1821 8.60176 16.2415C7.0629 16.3051 5.67202 16.373 4.43332 16.4536V8.33072C5.39299 8.25013 6.49217 8.16954 7.73087 8.08895C8.96956 8.00836 10.2505 7.94897 11.5695 7.90656C12.8886 7.86838 14.1273 7.84717 15.2856 7.84717ZM15.5816 35.5242C16.6596 35.5242 17.6277 35.3333 18.4902 34.9515H18.4859C19.3484 34.5698 20.0544 33.9208 20.6167 32.9961C21.1747 32.0714 21.496 30.7905 21.5763 29.1447V26.4979H15.5816C13.9032 26.4979 12.6138 26.9093 11.7133 27.7322C10.8128 28.5551 10.3647 29.6664 10.3647 31.0704C10.3647 32.3938 10.8128 33.467 11.7133 34.2898C12.6138 35.1127 13.9032 35.5242 15.5816 35.5242ZM93.1751 33.356H91.7715L84.779 8.38949H74.8822L84.7198 41.3601H87.658H91.2557H94.0122H97.3731H99.952L108.466 8.38949H99.1699L93.1751 33.356ZM112.5 8.38949H122.156V41.3601H112.5V8.38949ZM150.87 29.45C150.692 30.2644 150.388 30.9898 149.978 31.6387C149.458 32.4616 148.748 33.1064 147.847 33.5645C146.951 34.0311 145.856 34.2559 144.579 34.2559C142.859 34.2559 141.468 33.8656 140.415 33.0809C139.354 32.3047 138.58 31.2019 138.098 29.7724C137.625 28.3514 137.38 26.7608 137.38 24.9878C137.38 23.1087 137.642 21.4545 138.162 20.025C138.682 18.604 139.468 17.4927 140.529 16.6868C141.59 15.8851 142.922 15.4822 144.516 15.4822C146.397 15.4822 147.852 15.9954 148.896 17.0219C149.733 17.8448 150.282 18.8373 150.545 19.9911C150.599 20.1989 150.638 20.428 150.659 20.6528L159.803 18.515C159.689 17.972 159.541 17.4418 159.368 16.9286C158.996 15.7876 158.476 14.7314 157.829 13.7431C156.467 11.6943 154.645 10.0995 152.371 8.95845C150.096 7.81744 147.471 7.24057 144.512 7.24057C141.793 7.24057 139.388 7.70716 137.291 8.62336C135.194 9.54805 133.427 10.8121 132.011 12.4154C130.594 14.023 129.525 15.8554 128.806 17.9211C128.087 19.9868 127.724 22.1459 127.724 24.3897V25.5307C127.724 27.6982 128.079 29.7936 128.777 31.8211C129.474 33.8402 130.527 35.6599 131.926 37.2675C133.321 38.8666 135.063 40.1476 137.135 41.1104C139.219 42.0733 141.696 42.5568 144.575 42.5568C147.454 42.5568 150.172 41.9757 152.493 40.8178C154.806 39.6513 156.666 38.0352 158.065 35.9695C158.962 34.6419 159.604 33.1742 159.968 31.5751L158.328 31.1934L150.857 29.4458L150.87 29.45ZM196.036 18.6466C196.573 20.3857 196.835 22.2266 196.835 24.1523L196.839 24.1565V27.4014H172.839C172.97 28.3728 173.194 29.2677 173.503 30.0822C174.065 31.5413 174.94 32.6781 176.141 33.484C177.342 34.2857 178.906 34.6801 180.825 34.6801C182.584 34.6801 184.021 34.345 185.137 33.6621C186.249 32.9792 187.01 32.1479 187.412 31.1468L195.656 33.0725C195.136 34.5105 194.387 35.8296 193.411 37.0343C192.011 38.7606 190.253 40.1095 188.139 41.0893C186.021 42.0776 183.628 42.5654 180.825 42.5654C178.022 42.5654 175.553 42.0819 173.418 41.119C171.283 40.1562 169.487 38.8582 168.054 37.2124C166.612 35.5667 165.521 33.7342 164.777 31.7067C164.042 29.6792 163.67 27.605 163.67 25.4757V24.271C163.67 22.0654 164.042 19.953 164.777 17.9255C165.521 15.898 166.595 14.0868 168.02 12.4792C169.436 10.88 171.195 9.6033 173.292 8.6574C175.397 7.71999 177.781 7.24492 180.462 7.24492C183.983 7.24492 186.951 8.03387 189.365 9.62026C191.787 11.2024 193.639 13.2681 194.916 15.8174C195.372 16.7293 195.749 17.6752 196.036 18.6466ZM173.566 19.55C173.279 20.2627 173.055 21.0558 172.907 21.9254L172.903 21.9296H187.657C187.526 21.0049 187.319 20.1736 187.023 19.4355C186.49 18.0527 185.67 16.9881 184.571 16.2415C183.472 15.5035 182.14 15.1302 180.462 15.1302C178.783 15.1302 177.367 15.5035 176.204 16.2415C175.046 16.9881 174.171 18.0909 173.566 19.55Z" fill="#F4F3F0"/>
</svg>
