<?xml version="1.0" encoding="utf-8"?>
<!-- Generator: Adobe Illustrator 27.0.0, SVG Export Plug-In . SVG Version: 6.00 Build 0)  -->
<svg version="1.1" id="Laag_1" xmlns="http://www.w3.org/2000/svg" xmlns:xlink="http://www.w3.org/1999/xlink" x="0px" y="0px"
	 viewBox="0 0 192.7 192.7" style="enable-background:new 0 0 192.7 192.7;" xml:space="preserve">
<style type="text/css">
	.st0{fill:#0F0FFF;}
	.st1{fill:#FFFFFF;}
</style>
<g>
	<path class="st0" d="M27.4,69.6l2-4.3c0.2-0.5,0.5-1,0.8-1.5c0.3-0.5,0.7-0.9,1.1-1.2s0.8-0.5,1.3-0.6c0.5-0.1,1.1,0,1.7,0.3
		c0.7,0.3,1.1,0.7,1.4,1.3s0.3,1.2,0.3,1.9l0,0c0.2-0.4,0.5-0.7,0.8-0.9s0.6-0.4,1-0.5c0.3-0.1,0.7-0.2,1.1-0.1s0.8,0.1,1.1,0.3
		c0.6,0.3,1.1,0.6,1.3,1.1c0.3,0.5,0.5,0.9,0.5,1.5c0.1,0.5,0,1.1-0.1,1.6c-0.1,0.6-0.3,1.1-0.5,1.6L39,74.9L27.4,69.6z M33.2,69.2
		l0.8-1.8c0.1-0.2,0.2-0.4,0.2-0.6c0-0.2,0.1-0.4,0-0.6c0-0.2-0.1-0.4-0.2-0.5s-0.3-0.3-0.5-0.4C33.3,65,33.1,65,32.9,65
		c-0.2,0-0.4,0.1-0.6,0.2c-0.2,0.1-0.3,0.3-0.4,0.5c-0.1,0.2-0.2,0.4-0.3,0.6L30.7,68L33.2,69.2z M38,71.4l1.1-2.3
		c0.1-0.2,0.2-0.4,0.2-0.6c0-0.2,0.1-0.4,0-0.7s-0.1-0.4-0.2-0.6c-0.1-0.2-0.3-0.3-0.6-0.4c-0.3-0.1-0.5-0.2-0.8-0.1
		c-0.2,0.1-0.4,0.2-0.6,0.3c-0.2,0.2-0.3,0.4-0.5,0.6c-0.1,0.2-0.3,0.4-0.4,0.6l-0.9,1.9L38,71.4z"/>
	<path class="st0" d="M47.2,57.4c0.2,0.7,0.2,1.4,0.1,2.1c-0.1,0.7-0.4,1.4-0.8,1.9c-0.4,0.6-0.8,1-1.3,1.4
		c-0.5,0.4-1.1,0.6-1.6,0.7c-0.6,0.1-1.2,0.1-1.8,0c-0.6-0.1-1.2-0.4-1.8-0.8c-0.6-0.4-1-0.9-1.3-1.4c-0.3-0.5-0.5-1.1-0.6-1.7
		c-0.1-0.6,0-1.2,0.1-1.8c0.2-0.6,0.4-1.2,0.8-1.7c0.4-0.5,0.8-0.9,1.2-1.2c0.5-0.3,1-0.5,1.5-0.5c0.5-0.1,1.1,0,1.7,0.2
		s1.1,0.4,1.7,0.8l0.7,0.5L42.2,61c0.5,0.2,1,0.2,1.4,0.1c0.5-0.1,0.8-0.4,1.1-0.8c0.3-0.4,0.4-0.7,0.4-1.1c0-0.4,0-0.7-0.2-1.1
		L47.2,57.4z M42.7,57.1c-0.4-0.3-0.8-0.4-1.2-0.3c-0.4,0.1-0.8,0.3-1.1,0.7c-0.2,0.2-0.3,0.5-0.3,0.7c-0.1,0.2-0.1,0.5,0,0.7
		s0.1,0.4,0.2,0.6c0.1,0.2,0.3,0.3,0.4,0.5L42.7,57.1z"/>
	<path class="st0" d="M39.8,47.4l1.9-1.9l6,5.8l-0.4-4.6l2.3-2.4l0.4,5.2l5.9,0.8l-2.4,2.4l-5.2-1l0,0l3.2,3.1l-1.9,1.9L39.8,47.4z"
		/>
	<path class="st0" d="M49.3,41c-0.3-0.3-0.4-0.7-0.3-1.2c0.1-0.4,0.3-0.8,0.6-1c0.3-0.3,0.7-0.4,1.2-0.3c0.4,0.1,0.8,0.3,1,0.6
		c0.3,0.3,0.4,0.7,0.3,1.2c-0.1,0.4-0.3,0.8-0.6,1s-0.7,0.4-1.2,0.3C49.9,41.5,49.6,41.3,49.3,41z M51.1,43l2.1-1.6l5.3,7L56.4,50
		L51.1,43z M52.9,38.2c-0.3-0.3-0.4-0.7-0.3-1.2c0.1-0.4,0.3-0.8,0.6-1c0.3-0.3,0.7-0.4,1.2-0.3c0.4,0.1,0.8,0.3,1,0.6
		c0.3,0.3,0.4,0.7,0.3,1.2c-0.1,0.4-0.3,0.8-0.6,1c-0.3,0.3-0.7,0.4-1.2,0.3C53.5,38.7,53.2,38.5,52.9,38.2z M62.6,46.1
		c0.3,0.4,0.6,0.9,0.8,1.3c0.2,0.4,0.3,0.8,0.3,1.2c0,0.4-0.1,0.8-0.3,1.2c-0.2,0.4-0.6,0.8-1.1,1.1c-0.2,0.1-0.3,0.2-0.5,0.4
		s-0.4,0.2-0.6,0.3l-1.3-2c0.2,0,0.5-0.1,0.7-0.3c0.2-0.1,0.3-0.3,0.3-0.5s0-0.4,0-0.5c-0.1-0.2-0.1-0.4-0.3-0.5
		c-0.1-0.2-0.2-0.3-0.3-0.5l-5.4-7.1l2.1-1.6L62.6,46.1z"/>
	<path class="st0" d="M57.1,32.7l2.4-1.3l4,7.3l1-4.5l2.9-1.6l-1.2,5.1l5.4,2.5l-3,1.6l-4.7-2.5l0,0l2.1,3.9l-2.4,1.3L57.1,32.7z"/>
	<path class="st0" d="M76.3,24.4l1.5,5.9l0,0c0-0.2,0.1-0.4,0.2-0.6c0.1-0.2,0.2-0.4,0.4-0.6c0.2-0.2,0.4-0.3,0.6-0.5
		c0.2-0.2,0.5-0.3,0.8-0.3c0.7-0.2,1.2-0.2,1.7-0.1c0.5,0.1,0.8,0.3,1.2,0.6c0.3,0.3,0.6,0.7,0.8,1.2c0.2,0.5,0.4,1,0.5,1.6l1.2,4.7
		l-2.6,0.7l-1.1-4.1c-0.1-0.2-0.1-0.5-0.2-0.8c-0.1-0.3-0.2-0.5-0.3-0.7c-0.1-0.2-0.3-0.3-0.5-0.4c-0.2-0.1-0.5-0.1-0.8,0
		S79,31,78.8,31.2c-0.2,0.2-0.3,0.4-0.4,0.6c-0.1,0.2-0.1,0.5,0,0.7c0,0.3,0.1,0.5,0.2,0.8l1.1,4.2l-2.6,0.7l-3.4-13.2L76.3,24.4z"
		/>
	<path class="st0" d="M85.2,24.6c-0.1-0.4,0-0.8,0.3-1.2c0.3-0.3,0.6-0.5,1-0.6c0.4-0.1,0.8,0,1.2,0.3c0.3,0.3,0.5,0.6,0.6,1
		c0.1,0.4,0,0.8-0.3,1.2c-0.3,0.3-0.6,0.5-1,0.6s-0.8,0-1.2-0.3C85.5,25.4,85.3,25,85.2,24.6z M85.8,27.3l2.7-0.4l1.2,8.7L87,36
		L85.8,27.3z"/>
	<path class="st0" d="M99.6,33.7c-0.4,0.6-1,1-1.6,1.3s-1.3,0.5-2,0.5c-0.7,0-1.3-0.1-1.9-0.3s-1.1-0.5-1.6-0.9
		c-0.4-0.4-0.8-0.9-1.1-1.4s-0.4-1.2-0.4-1.9c0-0.7,0.1-1.3,0.4-1.9c0.2-0.6,0.6-1.1,1-1.5c0.4-0.4,0.9-0.7,1.5-0.9
		c0.6-0.2,1.2-0.3,1.9-0.3c0.6,0,1.2,0.1,1.7,0.3s0.9,0.5,1.3,0.9c0.4,0.4,0.6,0.9,0.8,1.4c0.2,0.6,0.3,1.2,0.3,1.9l0,0.8l-6.3,0.1
		c0.1,0.5,0.4,0.9,0.7,1.2c0.4,0.3,0.8,0.5,1.3,0.4c0.4,0,0.8-0.1,1.1-0.3c0.3-0.2,0.6-0.5,0.8-0.8L99.6,33.7z M97.3,29.9
		c0-0.5-0.1-0.8-0.5-1.2c-0.3-0.3-0.7-0.5-1.2-0.5c-0.3,0-0.6,0.1-0.8,0.2c-0.2,0.1-0.4,0.2-0.6,0.4c-0.2,0.2-0.3,0.3-0.4,0.5
		c-0.1,0.2-0.1,0.4-0.1,0.6L97.3,29.9z"/>
	<path class="st0" d="M102.6,26.8l2.7,0.3l-0.2,1.4l0,0c0.4-0.5,0.7-0.9,1.2-1.1c0.4-0.2,0.9-0.3,1.5-0.2c0.2,0,0.3,0,0.5,0.1
		c0.2,0,0.3,0.1,0.4,0.1l-0.3,2.4c-0.2-0.1-0.4-0.2-0.5-0.2c-0.2-0.1-0.4-0.1-0.6-0.1c-0.5-0.1-0.9,0-1.2,0.1
		c-0.3,0.1-0.6,0.3-0.8,0.5c-0.2,0.2-0.3,0.5-0.4,0.9c-0.1,0.4-0.2,0.7-0.2,1.2l-0.5,3.6l-2.7-0.3L102.6,26.8z"/>
	<path class="st0" d="M122.1,40.8l-2.3-0.9l0.4-1.1l0,0c-0.2,0.1-0.3,0.2-0.6,0.3c-0.2,0.1-0.5,0.2-0.7,0.2c-0.3,0-0.5,0.1-0.8,0
		c-0.3,0-0.6-0.1-0.9-0.2c-0.6-0.2-1.1-0.5-1.5-0.9c-0.4-0.4-0.7-0.8-0.9-1.4c-0.2-0.5-0.3-1.1-0.3-1.6c0-0.6,0.1-1.2,0.4-1.8
		c0.2-0.6,0.5-1.1,0.9-1.5s0.8-0.8,1.3-1.1s1-0.5,1.5-0.5s1.1,0,1.7,0.2c0.5,0.2,1,0.5,1.4,0.8s0.7,0.8,0.8,1.3l0,0l2-5.4l2.5,1
		L122.1,40.8z M121.4,35.9c0.2-0.6,0.2-1.2,0-1.7s-0.6-0.9-1.3-1.1c-0.6-0.2-1.2-0.2-1.7,0s-0.9,0.7-1.1,1.3c-0.2,0.6-0.2,1.2,0,1.7
		c0.2,0.5,0.6,0.9,1.3,1.1c0.6,0.2,1.2,0.2,1.7,0S121.1,36.5,121.4,35.9z"/>
	<path class="st0" d="M131.7,44.5c-0.7,0.3-1.3,0.3-2.1,0.3s-1.4-0.3-2-0.7c-0.6-0.3-1.1-0.8-1.5-1.2c-0.4-0.5-0.7-1-0.9-1.6
		c-0.2-0.6-0.2-1.2-0.2-1.8c0.1-0.6,0.3-1.2,0.6-1.8c0.4-0.6,0.8-1.1,1.3-1.4s1-0.6,1.6-0.7c0.6-0.1,1.2-0.1,1.8,0
		c0.6,0.1,1.2,0.3,1.8,0.7c0.5,0.3,1,0.7,1.3,1.1c0.3,0.4,0.5,0.9,0.6,1.5c0.1,0.5,0.1,1.1,0,1.7c-0.1,0.6-0.4,1.2-0.7,1.8l-0.4,0.7
		l-5.4-3.2c-0.2,0.5-0.2,1,0,1.4c0.2,0.4,0.5,0.8,0.9,1.1c0.4,0.2,0.8,0.3,1.1,0.3c0.4,0,0.7-0.1,1.1-0.3L131.7,44.5z M131.7,40.1
		c0.2-0.4,0.3-0.8,0.2-1.2c-0.1-0.4-0.4-0.8-0.8-1c-0.3-0.2-0.5-0.2-0.8-0.3c-0.2,0-0.5,0-0.7,0c-0.2,0-0.4,0.1-0.6,0.3
		c-0.2,0.1-0.3,0.3-0.4,0.5L131.7,40.1z"/>
	<path class="st0" d="M142.4,56l-1.8-1.8l0.8-0.8l0,0c-0.2,0.1-0.4,0.1-0.6,0.1s-0.5,0-0.7-0.1c-0.2-0.1-0.5-0.2-0.8-0.3
		c-0.3-0.1-0.5-0.3-0.7-0.5c-0.5-0.5-0.8-0.9-1-1.4s-0.2-0.9-0.1-1.3c0.1-0.4,0.3-0.8,0.6-1.3s0.7-0.8,1.1-1.2l3.4-3.4l1.9,1.9l-3,3
		c-0.2,0.2-0.4,0.4-0.5,0.6c-0.2,0.2-0.3,0.4-0.4,0.6s-0.1,0.5-0.1,0.7c0,0.2,0.2,0.5,0.4,0.7c0.2,0.2,0.5,0.4,0.7,0.5
		c0.2,0.1,0.5,0.1,0.7,0c0.2-0.1,0.5-0.2,0.7-0.3c0.2-0.2,0.4-0.3,0.6-0.5l3.1-3.1l1.9,1.9L142.4,56z"/>
	<path class="st0" d="M150.3,52.1l1.7,2.1l-6.9,5.4l-1.7-2.1L150.3,52.1z M152.3,50.2c0.3-0.3,0.7-0.4,1.2-0.3s0.8,0.2,1,0.6
		c0.3,0.3,0.4,0.7,0.3,1.2c-0.1,0.4-0.2,0.8-0.6,1c-0.3,0.3-0.7,0.4-1.2,0.3c-0.4-0.1-0.8-0.2-1-0.6s-0.4-0.7-0.3-1.2
		C151.8,50.8,152,50.4,152.3,50.2z"/>
	<path class="st0" d="M155,62.5l-1.3-2l-2.5,1.6c-0.2,0.1-0.4,0.3-0.5,0.4c-0.2,0.1-0.3,0.3-0.3,0.4s-0.1,0.3-0.1,0.5
		c0,0.2,0.1,0.4,0.3,0.6c0.1,0.1,0.2,0.3,0.3,0.5c0.2,0.2,0.3,0.3,0.5,0.3l-1.9,1.2c-0.3-0.2-0.5-0.4-0.7-0.7
		c-0.2-0.3-0.4-0.5-0.6-0.8c-0.2-0.4-0.4-0.8-0.6-1.1c-0.1-0.4-0.2-0.7-0.2-1.1c0-0.4,0.1-0.7,0.3-1c0.2-0.3,0.5-0.6,0.9-0.9
		l3.5-2.2l-0.9-1.5l1.8-1.2l0.9,1.5l2.2-1.4l1.5,2.3l-2.2,1.4l1.3,2L155,62.5z"/>
	<path class="st0" d="M154.5,75c-1.5,0.7-2.8,0.8-4,0.4c-1.1-0.4-2-1.4-2.7-2.9c-0.3-0.7-0.6-1.4-0.7-2.2c-0.2-0.8-0.1-1.5,0.1-2.3
		l2.6,0.4c-0.1,0.5-0.2,1-0.2,1.5s0.1,1,0.3,1.5c0.3,0.8,0.8,1.2,1.3,1.4c0.5,0.2,1.1,0.2,1.6-0.1l0.8-0.3l0,0
		c-0.5-0.1-0.9-0.3-1.3-0.7c-0.3-0.4-0.6-0.7-0.8-1.1c-0.3-0.6-0.4-1.2-0.4-1.7c0-0.6,0.1-1.1,0.3-1.6c0.2-0.5,0.5-1,0.9-1.4
		c0.4-0.4,0.9-0.8,1.5-1c0.5-0.2,1.1-0.4,1.7-0.4s1.1,0,1.7,0.1s1,0.4,1.4,0.7c0.4,0.3,0.8,0.8,1,1.4c0.2,0.3,0.3,0.7,0.3,1
		c0.1,0.3,0.1,0.6,0.1,0.9c0,0.3-0.1,0.5-0.1,0.8c-0.1,0.2-0.2,0.4-0.3,0.6l0,0l1-0.5l1,2.3L154.5,75z M155.1,67.3
		c-0.3,0.1-0.5,0.3-0.7,0.5s-0.3,0.4-0.4,0.7s-0.2,0.5-0.2,0.8c0,0.3,0.1,0.6,0.2,0.9c0.1,0.3,0.3,0.5,0.5,0.7
		c0.2,0.2,0.5,0.3,0.7,0.4c0.3,0.1,0.5,0.1,0.8,0.1c0.3,0,0.6-0.1,0.8-0.2c0.3-0.1,0.5-0.3,0.7-0.5c0.2-0.2,0.3-0.4,0.4-0.7
		s0.1-0.5,0.2-0.8c0-0.3-0.1-0.6-0.2-0.8c-0.1-0.3-0.3-0.5-0.5-0.7s-0.5-0.3-0.7-0.4c-0.3-0.1-0.5-0.1-0.8-0.1
		S155.3,67.2,155.1,67.3z"/>
	<path class="st0" d="M158,84.7c-0.6-0.3-1.2-0.7-1.6-1.3c-0.5-0.6-0.8-1.2-0.9-1.9c-0.2-0.7-0.2-1.3-0.2-1.9
		c0.1-0.6,0.2-1.2,0.5-1.7c0.3-0.5,0.7-1,1.1-1.4c0.5-0.4,1.1-0.7,1.7-0.8c0.7-0.2,1.3-0.2,1.9-0.1c0.6,0.1,1.2,0.3,1.7,0.6
		c0.5,0.3,0.9,0.7,1.3,1.3c0.4,0.5,0.6,1.1,0.8,1.8c0.2,0.6,0.2,1.2,0.1,1.7c-0.1,0.5-0.3,1-0.6,1.5c-0.3,0.4-0.7,0.8-1.2,1.2
		c-0.5,0.3-1.1,0.6-1.8,0.8l-0.8,0.2l-1.6-6.1c-0.5,0.2-0.8,0.6-1,1c-0.2,0.4-0.2,0.9-0.1,1.4c0.1,0.4,0.3,0.8,0.6,1
		s0.6,0.4,0.9,0.6L158,84.7z M161.1,81.5c0.4-0.1,0.8-0.3,1-0.7c0.2-0.4,0.3-0.8,0.2-1.3c-0.1-0.3-0.2-0.5-0.3-0.7
		c-0.2-0.2-0.3-0.4-0.5-0.5c-0.2-0.1-0.4-0.2-0.6-0.2c-0.2,0-0.4,0-0.6,0L161.1,81.5z"/>
	<path class="st0" d="M170.4,85.9l0.2,2.7l-5.8,0.5l0,0c0.4,0.3,0.8,0.7,1,1.1c0.2,0.5,0.3,1,0.4,1.5c0,0.6,0,1.2-0.3,1.7
		c-0.2,0.5-0.5,1-0.9,1.3c-0.4,0.4-0.9,0.7-1.4,0.9c-0.5,0.2-1.1,0.4-1.7,0.4c-0.7,0.1-1.3,0-1.8-0.2c-0.6-0.2-1.1-0.4-1.5-0.8
		c-0.4-0.3-0.8-0.8-1-1.3c-0.3-0.5-0.4-1.1-0.5-1.7c0-0.3,0-0.6,0.1-0.9c0.1-0.3,0.1-0.5,0.3-0.8c0.1-0.2,0.2-0.5,0.4-0.6
		c0.1-0.2,0.3-0.3,0.4-0.5l0,0l-1.1,0.1l-0.2-2.5L170.4,85.9z M161.4,89.1c-0.7,0.1-1.2,0.3-1.6,0.7c-0.4,0.4-0.5,1-0.5,1.6
		s0.3,1.2,0.7,1.5c0.4,0.3,1,0.5,1.6,0.4c0.7-0.1,1.2-0.3,1.6-0.7c0.4-0.4,0.5-1,0.5-1.6s-0.3-1.2-0.7-1.5
		C162.6,89.2,162.1,89.1,161.4,89.1z"/>
	<path class="st0" d="M166.2,98.4l-0.2,2.7l-1.4-0.1l0,0c0.5,0.3,0.9,0.7,1.1,1.1c0.2,0.4,0.3,0.9,0.3,1.5c0,0.2,0,0.3-0.1,0.5
		c0,0.2-0.1,0.3-0.1,0.4l-2.5-0.2c0.1-0.2,0.1-0.4,0.2-0.6c0-0.2,0.1-0.4,0.1-0.6c0-0.5,0-0.9-0.1-1.2c-0.1-0.3-0.3-0.6-0.6-0.7
		c-0.2-0.2-0.5-0.3-0.9-0.4c-0.4-0.1-0.7-0.1-1.2-0.2l-3.6-0.3l0.2-2.7L166.2,98.4z"/>
	<path class="st0" d="M156.8,113c-0.5-0.5-0.8-1.2-0.9-1.9c-0.2-0.7-0.2-1.4,0-2.1c0.1-0.7,0.4-1.3,0.7-1.8c0.3-0.5,0.7-1,1.2-1.3
		c0.5-0.3,1-0.6,1.6-0.7c0.6-0.1,1.2-0.1,1.9,0c0.7,0.1,1.3,0.4,1.8,0.8c0.5,0.4,0.9,0.8,1.2,1.3c0.3,0.5,0.5,1.1,0.6,1.7
		s0.1,1.3-0.1,1.9c-0.1,0.6-0.3,1.1-0.7,1.6c-0.3,0.5-0.7,0.8-1.2,1.1c-0.5,0.3-1,0.4-1.6,0.5c-0.6,0.1-1.2,0-1.9-0.1l-0.8-0.2
		l1.3-6.1c-0.5,0-1,0.1-1.4,0.4c-0.4,0.3-0.6,0.7-0.7,1.2c-0.1,0.4-0.1,0.8,0.1,1.2s0.3,0.7,0.6,0.9L156.8,113z M161,111.5
		c0.4,0.1,0.9,0,1.2-0.2c0.4-0.2,0.6-0.6,0.7-1.1c0.1-0.3,0.1-0.6,0-0.8c0-0.2-0.1-0.5-0.2-0.6s-0.3-0.3-0.4-0.5
		c-0.2-0.1-0.4-0.2-0.6-0.3L161,111.5z"/>
	<path class="st0" d="M162.9,117.3l-0.9,2.6l-8.3-2.8l0.9-2.6L162.9,117.3z M165.6,118c0.4,0.1,0.7,0.4,0.9,0.8
		c0.2,0.4,0.2,0.8,0.1,1.2c-0.1,0.4-0.4,0.7-0.8,0.9c-0.4,0.2-0.8,0.2-1.2,0.1c-0.4-0.1-0.7-0.4-0.9-0.8c-0.2-0.4-0.2-0.8-0.1-1.2
		s0.4-0.7,0.8-0.9C164.8,117.8,165.2,117.8,165.6,118z"/>
	<path class="st0" d="M149.4,127l1.1-2.2l1,0.5l0,0c-0.1-0.2-0.2-0.4-0.2-0.6c-0.1-0.2-0.1-0.5-0.1-0.7c0-0.3,0-0.5,0-0.8
		c0-0.3,0.1-0.6,0.3-0.8c0.3-0.6,0.6-1.1,1.1-1.4c0.4-0.4,0.9-0.7,1.4-0.8c0.5-0.2,1.1-0.2,1.7-0.2c0.6,0.1,1.2,0.2,1.8,0.5
		c0.6,0.3,1,0.6,1.5,1s0.8,0.9,1,1.4s0.4,1,0.4,1.6c0,0.6-0.1,1.1-0.4,1.7c-0.2,0.5-0.6,0.9-0.9,1.3s-0.8,0.6-1.3,0.7l0,0l5.2,2.5
		l-1.2,2.4L149.4,127z M154.4,126.6c0.6,0.3,1.2,0.3,1.7,0.2c0.5-0.2,0.9-0.6,1.2-1.2c0.3-0.6,0.3-1.2,0.1-1.7
		c-0.2-0.5-0.6-0.9-1.2-1.2c-0.6-0.3-1.2-0.3-1.7-0.2c-0.5,0.2-0.9,0.6-1.2,1.2c-0.3,0.6-0.3,1.2-0.1,1.7
		C153.4,125.9,153.8,126.3,154.4,126.6z"/>
	<path class="st0" d="M144.8,136.1c-0.2-0.7-0.2-1.4-0.1-2.1c0.1-0.7,0.4-1.4,0.8-1.9c0.4-0.5,0.8-1,1.4-1.4
		c0.5-0.4,1.1-0.6,1.7-0.7c0.6-0.1,1.2-0.1,1.8,0c0.6,0.1,1.2,0.4,1.8,0.8c0.6,0.4,1,0.9,1.3,1.4c0.3,0.5,0.5,1.1,0.6,1.7
		c0.1,0.6,0,1.2-0.1,1.8c-0.2,0.6-0.5,1.2-0.8,1.7c-0.4,0.5-0.8,0.9-1.3,1.2c-0.5,0.3-1,0.5-1.5,0.5s-1.1,0-1.7-0.2
		c-0.6-0.2-1.1-0.5-1.7-0.9l-0.7-0.5l3.7-5.1c-0.5-0.2-1-0.3-1.4-0.1c-0.5,0.1-0.8,0.4-1.1,0.8c-0.3,0.4-0.4,0.7-0.4,1.1
		s0,0.7,0.2,1.1L144.8,136.1z M149.3,136.5c0.4,0.3,0.8,0.4,1.2,0.3c0.4-0.1,0.8-0.3,1.1-0.7c0.2-0.2,0.3-0.5,0.3-0.7
		c0.1-0.2,0.1-0.5,0-0.7c0-0.2-0.1-0.4-0.2-0.6c-0.1-0.2-0.2-0.4-0.4-0.5L149.3,136.5z"/>
	<path class="st0" d="M141.9,143.5c0.4,0.5,0.8,1.1,0.9,1.7c0.2,0.6,0.2,1.2,0.1,1.8c-0.1,0.6-0.3,1.2-0.6,1.7
		c-0.3,0.5-0.7,1-1.3,1.5c-0.5,0.4-1.1,0.8-1.7,1s-1.2,0.3-1.8,0.3c-0.6,0-1.2-0.2-1.7-0.5c-0.6-0.3-1.1-0.7-1.5-1.2
		c-0.4-0.5-0.8-1.1-0.9-1.7s-0.2-1.2-0.1-1.8s0.3-1.2,0.6-1.7c0.3-0.5,0.7-1,1.3-1.5c0.5-0.4,1.1-0.8,1.7-1c0.6-0.2,1.2-0.3,1.8-0.3
		c0.6,0,1.2,0.2,1.7,0.5C141,142.6,141.5,143,141.9,143.5z M139.8,145.3c-0.4-0.5-0.9-0.8-1.5-0.9c-0.6-0.1-1.1,0.1-1.6,0.5
		c-0.5,0.4-0.8,0.9-0.8,1.5c0,0.6,0.2,1.1,0.6,1.6c0.4,0.5,0.9,0.8,1.5,0.9c0.6,0.1,1.1-0.1,1.6-0.5c0.5-0.4,0.8-0.9,0.8-1.5
		C140.5,146.3,140.3,145.8,139.8,145.3z"/>
	<path class="st0" d="M135,154.6l-2.2,1.3l-0.6-1l0,0c0,0.2,0,0.4-0.1,0.6c-0.1,0.2-0.1,0.4-0.3,0.7c-0.1,0.2-0.3,0.4-0.5,0.7
		c-0.2,0.2-0.4,0.4-0.7,0.6c-0.6,0.3-1.1,0.5-1.6,0.6s-0.9-0.1-1.3-0.3c-0.4-0.2-0.7-0.5-1.1-0.9c-0.3-0.4-0.6-0.8-0.9-1.4l-2.4-4.2
		l2.3-1.4l2.1,3.7c0.1,0.2,0.3,0.4,0.4,0.7c0.2,0.2,0.3,0.4,0.5,0.6c0.2,0.2,0.4,0.2,0.6,0.3c0.2,0,0.5,0,0.8-0.2
		c0.3-0.2,0.5-0.4,0.6-0.6c0.1-0.2,0.2-0.4,0.2-0.7c0-0.2-0.1-0.5-0.2-0.7c-0.1-0.2-0.2-0.5-0.4-0.7l-2.2-3.8l2.3-1.4L135,154.6z"/>
	<path class="st0" d="M113.3,155.2l2.3-0.9l0.4,1.1l0,0c0-0.2,0.1-0.4,0.2-0.6s0.2-0.4,0.4-0.6c0.2-0.2,0.4-0.4,0.6-0.6
		c0.2-0.2,0.5-0.3,0.8-0.4c0.6-0.2,1.2-0.3,1.8-0.3c0.6,0,1.1,0.2,1.6,0.4c0.5,0.2,0.9,0.6,1.3,1c0.4,0.4,0.7,1,0.9,1.6
		c0.2,0.6,0.3,1.2,0.3,1.7c0,0.6-0.1,1.1-0.2,1.7c-0.2,0.5-0.4,1-0.8,1.4c-0.4,0.4-0.9,0.7-1.4,0.9c-0.5,0.2-1.1,0.3-1.6,0.3
		c-0.5,0-1-0.1-1.4-0.4l0,0l2,5.4l-2.5,0.9L113.3,155.2z M117.1,158.4c0.2,0.6,0.6,1.1,1.1,1.3s1.1,0.3,1.7,0
		c0.6-0.2,1.1-0.6,1.3-1.1s0.2-1.1,0-1.7c-0.2-0.6-0.6-1.1-1.1-1.3c-0.5-0.3-1.1-0.3-1.7,0c-0.6,0.2-1.1,0.6-1.3,1.1
		C116.9,157.2,116.9,157.8,117.1,158.4z"/>
	<path class="st0" d="M103.6,158.6c0.3-0.6,0.8-1.1,1.4-1.6c0.6-0.4,1.2-0.7,1.9-0.8c0.7-0.1,1.3-0.1,1.9,0s1.2,0.3,1.7,0.6
		c0.5,0.3,0.9,0.7,1.3,1.2c0.3,0.5,0.6,1.1,0.7,1.8s0.1,1.3,0,1.9c-0.1,0.6-0.4,1.1-0.8,1.6c-0.4,0.5-0.8,0.9-1.4,1.2
		c-0.5,0.3-1.1,0.5-1.8,0.7c-0.6,0.1-1.2,0.1-1.7,0c-0.5-0.1-1-0.3-1.4-0.7c-0.4-0.3-0.8-0.8-1.1-1.3c-0.3-0.5-0.5-1.1-0.6-1.8
		l-0.2-0.8l6.2-1.1c-0.2-0.5-0.5-0.8-0.9-1.1s-0.9-0.3-1.4-0.2c-0.4,0.1-0.8,0.2-1.1,0.5c-0.3,0.3-0.5,0.5-0.6,0.9L103.6,158.6z
		 M106.6,162c0.1,0.5,0.3,0.8,0.7,1.1c0.4,0.3,0.8,0.3,1.3,0.3c0.3-0.1,0.5-0.1,0.8-0.3c0.2-0.1,0.4-0.3,0.5-0.5
		c0.1-0.2,0.2-0.4,0.3-0.6s0.1-0.4,0-0.6L106.6,162z"/>
	<path class="st0" d="M101.9,166l-2.7,0.1l-0.1-1.4l0,0c-0.3,0.6-0.6,1-1,1.3c-0.4,0.3-0.9,0.4-1.5,0.5c-0.2,0-0.3,0-0.5,0
		c-0.2,0-0.3,0-0.4-0.1l-0.1-2.5c0.2,0.1,0.4,0.1,0.6,0.1c0.2,0,0.4,0,0.6,0c0.5,0,0.9-0.1,1.2-0.3c0.3-0.2,0.5-0.4,0.7-0.6
		s0.2-0.6,0.3-0.9s0-0.8,0-1.2l-0.2-3.7l2.7-0.1L101.9,166z"/>
	<path class="st0" d="M94.4,166.5l-2.9-0.4l-1-5.7l0,0l-2.2,5.2l-2.9-0.4l-0.9-5.7l0,0l-2.4,5.2l-2.7-0.4l4.3-8.2l2.6,0.4l1,6l0,0
		l2.4-5.5l2.7,0.4L94.4,166.5z"/>
	<path class="st0" d="M72.3,164.8c-0.1,0.4-0.4,0.7-0.8,0.9c-0.4,0.2-0.8,0.2-1.2,0.1c-0.4-0.1-0.7-0.4-0.9-0.8
		c-0.2-0.4-0.2-0.8-0.1-1.2s0.4-0.7,0.8-0.9c0.4-0.2,0.8-0.2,1.2-0.1c0.4,0.1,0.7,0.4,0.9,0.8S72.5,164.4,72.3,164.8z M73.5,152.4
		c0.2-0.5,0.4-1,0.6-1.4c0.2-0.4,0.5-0.7,0.9-0.9s0.7-0.3,1.2-0.4c0.4,0,1,0.1,1.5,0.3c0.2,0.1,0.4,0.1,0.6,0.2
		c0.2,0.1,0.4,0.2,0.6,0.3l-0.9,2.2c-0.2-0.2-0.4-0.3-0.6-0.4c-0.2-0.1-0.4-0.1-0.6,0c-0.2,0.1-0.3,0.2-0.4,0.3s-0.2,0.3-0.3,0.5
		c-0.1,0.2-0.1,0.4-0.2,0.5l-2.9,8.4l-2.6-0.9L73.5,152.4z M76.6,166.3c-0.1,0.4-0.4,0.7-0.8,0.9s-0.8,0.2-1.2,0.1
		c-0.4-0.1-0.7-0.4-0.9-0.8c-0.2-0.4-0.2-0.8-0.1-1.2c0.1-0.4,0.4-0.7,0.8-0.9c0.4-0.2,0.8-0.2,1.2-0.1c0.4,0.1,0.7,0.4,0.9,0.8
		C76.7,165.5,76.8,165.9,76.6,166.3z M77.3,163.6l-2.6-0.9l2.8-8.3l2.6,0.9L77.3,163.6z"/>
	<path class="st0" d="M64.5,155.6c0.1,0.6,0.5,1.1,1.1,1.4c0.2,0.1,0.4,0.2,0.7,0.2c0.2,0,0.4-0.1,0.5-0.4c0.1-0.2,0.1-0.4-0.1-0.6
		c-0.2-0.2-0.4-0.4-0.6-0.6s-0.6-0.5-0.9-0.7c-0.3-0.3-0.6-0.5-0.8-0.9c-0.2-0.3-0.4-0.7-0.4-1.1c0-0.4,0-0.8,0.3-1.3
		c0.3-0.5,0.6-0.9,1-1.1c0.4-0.2,0.8-0.3,1.2-0.4c0.4,0,0.9,0,1.4,0.2c0.5,0.1,0.9,0.3,1.3,0.5c0.5,0.3,1.1,0.6,1.5,1.1
		c0.5,0.4,0.8,0.9,1,1.5l-2.3,0.9c-0.1-0.4-0.2-0.7-0.4-1c-0.2-0.3-0.5-0.5-0.8-0.7c-0.3-0.1-0.6-0.2-0.8-0.3
		c-0.3,0-0.5,0.1-0.6,0.3c-0.1,0.2-0.1,0.4,0.1,0.6c0.1,0.2,0.4,0.4,0.6,0.6c0.3,0.2,0.6,0.5,0.9,0.7c0.3,0.3,0.6,0.5,0.8,0.9
		c0.2,0.3,0.4,0.7,0.4,1.1c0,0.4,0,0.8-0.3,1.3c-0.2,0.5-0.5,0.8-0.9,1c-0.4,0.2-0.7,0.4-1.2,0.4c-0.4,0.1-0.8,0-1.3-0.1
		c-0.4-0.1-0.9-0.2-1.3-0.5c-0.5-0.3-1-0.6-1.4-1s-0.8-0.9-0.9-1.5L64.5,155.6z"/>
	<path class="st0" d="M51.9,146.5c0,0.2,0,0.5,0.1,0.7c0.1,0.2,0.3,0.5,0.5,0.6c0.5,0.4,1.1,0.6,1.6,0.5c0.6-0.1,1-0.4,1.5-0.9
		c0.4-0.5,0.6-1,0.6-1.6c0-0.6-0.3-1.1-0.8-1.5c-0.2-0.2-0.5-0.3-0.7-0.3c-0.2,0-0.5,0-0.7,0l-0.2-2.6c0.6-0.1,1.2,0,1.7,0.2
		s1,0.5,1.4,0.8c0.5,0.4,0.9,0.9,1.3,1.5c0.3,0.5,0.5,1.1,0.6,1.7s0,1.2-0.1,1.8c-0.2,0.6-0.5,1.2-0.9,1.7c-0.4,0.5-0.9,0.9-1.5,1.2
		s-1.1,0.4-1.7,0.5s-1.2-0.1-1.8-0.3c-0.6-0.2-1.2-0.5-1.7-1c-0.4-0.3-0.8-0.7-1.1-1.2c-0.3-0.5-0.5-1-0.6-1.6L51.9,146.5z"/>
	<path class="st0" d="M49.2,137L49.2,137c0.6-0.1,1.1,0,1.6,0.2c0.5,0.2,0.9,0.6,1.3,1c0.3,0.3,0.5,0.6,0.7,1s0.3,0.7,0.3,1.1
		c0,0.4,0,0.7-0.2,1.1c-0.1,0.3-0.4,0.7-0.7,1c-0.4,0.3-0.8,0.6-1.1,0.7s-0.8,0.1-1.1,0c-0.4-0.1-0.8-0.2-1.1-0.5
		c-0.4-0.2-0.7-0.5-1.1-0.8c-0.3-0.3-0.7-0.6-1-0.9c-0.3-0.3-0.6-0.6-0.8-0.9c-0.4,0.3-0.5,0.7-0.5,1.1c0,0.4,0.2,0.8,0.5,1.2
		c0.3,0.3,0.6,0.6,1,0.7c0.4,0.1,0.8,0.2,1.2,0.2l-0.1,2.1c-0.7-0.1-1.3-0.3-2-0.6c-0.6-0.3-1.2-0.8-1.7-1.3
		c-0.5-0.6-0.9-1.1-1.1-1.6s-0.3-1-0.2-1.5s0.3-1,0.6-1.4c0.3-0.5,0.8-0.9,1.3-1.4l3.3-3l1.7,1.8L49.2,137z M47.7,139.3
		c0.1,0.2,0.3,0.3,0.5,0.5c0.2,0.2,0.5,0.4,0.7,0.6c0.3,0.2,0.5,0.2,0.8,0.3c0.3,0,0.5,0,0.7-0.3c0.2-0.2,0.3-0.5,0.3-0.8
		c-0.1-0.3-0.2-0.6-0.4-0.8c-0.2-0.2-0.4-0.4-0.6-0.5s-0.4-0.2-0.7-0.3c-0.2-0.1-0.5-0.1-0.7,0c-0.2,0.1-0.4,0.2-0.6,0.4l-0.4,0.4
		L47.7,139.3z"/>
	<path class="st0" d="M39.7,132.6c-0.2,0.6-0.1,1.2,0.3,1.7c0.1,0.2,0.3,0.3,0.5,0.5c0.2,0.1,0.4,0.1,0.6,0c0.2-0.1,0.2-0.3,0.2-0.5
		c0-0.2-0.1-0.5-0.2-0.9c-0.1-0.3-0.3-0.7-0.4-1.1c-0.1-0.4-0.2-0.8-0.3-1.1s0-0.8,0.2-1.1c0.1-0.4,0.5-0.7,0.9-1
		c0.5-0.3,0.9-0.5,1.4-0.5c0.4,0,0.9,0.1,1.3,0.3c0.4,0.2,0.8,0.5,1.1,0.8c0.3,0.3,0.6,0.7,0.9,1.1c0.3,0.5,0.6,1.1,0.8,1.7
		c0.2,0.6,0.2,1.2,0.1,1.8l-2.4-0.3c0.1-0.4,0.2-0.7,0.1-1.1c0-0.3-0.2-0.7-0.4-1c-0.2-0.3-0.4-0.5-0.6-0.6c-0.2-0.2-0.4-0.2-0.6,0
		c-0.2,0.1-0.3,0.3-0.2,0.6c0,0.2,0.1,0.5,0.2,0.9c0.1,0.3,0.3,0.7,0.4,1.1c0.1,0.4,0.2,0.8,0.3,1.1c0,0.4,0,0.8-0.2,1.1
		c-0.1,0.4-0.5,0.7-0.9,1c-0.4,0.3-0.9,0.5-1.3,0.5c-0.4,0-0.8,0-1.2-0.2s-0.8-0.4-1.1-0.7c-0.3-0.3-0.6-0.6-0.9-1
		c-0.3-0.5-0.6-1-0.8-1.6c-0.2-0.6-0.2-1.2-0.1-1.7L39.7,132.6z"/>
	<path class="st0" d="M38.1,119.7c0.7,0.2,1.3,0.5,1.9,0.9c0.6,0.5,1,1,1.3,1.7c0.3,0.6,0.5,1.2,0.5,1.9c0.1,0.6,0,1.2-0.2,1.8
		c-0.2,0.6-0.5,1.1-0.9,1.6c-0.4,0.5-0.9,0.9-1.5,1.2c-0.6,0.3-1.3,0.5-1.9,0.5c-0.6,0-1.2-0.1-1.8-0.3c-0.6-0.2-1.1-0.6-1.5-1
		c-0.5-0.4-0.8-1-1.1-1.6c-0.3-0.6-0.4-1.1-0.4-1.7c0-0.6,0.1-1.1,0.3-1.6c0.2-0.5,0.5-0.9,1-1.4s1-0.8,1.6-1.1l0.8-0.4l2.7,5.6
		c0.4-0.3,0.7-0.7,0.8-1.2c0.1-0.5,0.1-0.9-0.2-1.4c-0.2-0.4-0.4-0.7-0.8-0.9c-0.3-0.2-0.7-0.3-1-0.4L38.1,119.7z M35.7,123.4
		c-0.4,0.2-0.7,0.5-0.9,0.9c-0.2,0.4-0.1,0.9,0.1,1.3c0.1,0.3,0.3,0.5,0.5,0.7c0.2,0.2,0.4,0.3,0.6,0.4c0.2,0.1,0.4,0.1,0.6,0.1
		c0.2,0,0.4,0,0.6-0.1L35.7,123.4z"/>
	<path class="st0" d="M31.6,114.4c-0.4,0.5-0.4,1.1-0.2,1.7c0.1,0.2,0.2,0.4,0.4,0.6c0.2,0.2,0.4,0.2,0.6,0.1
		c0.2-0.1,0.3-0.2,0.4-0.5c0-0.2,0-0.5,0-0.9c0-0.3-0.1-0.7-0.1-1.1s0-0.8,0.1-1.2c0.1-0.4,0.2-0.7,0.5-1c0.2-0.3,0.6-0.5,1.2-0.7
		c0.5-0.2,1-0.2,1.4-0.1s0.8,0.3,1.1,0.6c0.3,0.3,0.6,0.7,0.8,1.1c0.2,0.4,0.4,0.9,0.5,1.3c0.2,0.6,0.3,1.2,0.3,1.8
		c0,0.6-0.1,1.2-0.4,1.8l-2.2-1c0.2-0.3,0.4-0.7,0.4-1c0.1-0.3,0-0.7-0.1-1.1c-0.1-0.3-0.2-0.6-0.4-0.8s-0.4-0.3-0.6-0.2
		c-0.2,0.1-0.3,0.2-0.4,0.5c0,0.2-0.1,0.5,0,0.9c0,0.4,0.1,0.7,0.1,1.1c0,0.4,0,0.8-0.1,1.2c-0.1,0.4-0.2,0.7-0.5,1
		c-0.3,0.3-0.6,0.5-1.2,0.7c-0.5,0.2-0.9,0.2-1.4,0.1s-0.8-0.3-1.1-0.5c-0.3-0.3-0.6-0.6-0.9-1c-0.2-0.4-0.4-0.8-0.6-1.2
		c-0.2-0.6-0.3-1.1-0.3-1.7c0-0.6,0.1-1.2,0.4-1.7L31.6,114.4z"/>
	<path class="st0" d="M31.9,98.7l-2-5.8l0,0l-2.4,5.6L25,98.4l3.9-9l2.3,0.1l3.2,9.2L31.9,98.7z"/>
</g>
<g>
	<polygon class="st0" points="70.4,111.4 113,111.4 113,67.1 	"/>
	<g>
		<path class="st1" d="M106,97.8l-5.6,6.2c-0.1,0.1-0.3,0.2-0.4,0.2c-0.1,0-0.3,0-0.4-0.1c-0.2-0.2-0.2-0.6,0-0.8l4.8-5.2H91.5
			c-0.3,0-0.5-0.3-0.5-0.5s0.2-0.6,0.5-0.6h12.8l-4.8-5.2c-0.2-0.2-0.2-0.6,0-0.8c0.2-0.2,0.6-0.2,0.8,0L106,97
			C106.2,97.2,106.2,97.5,106,97.8z"/>
	</g>
</g>
</svg>
