<svg width="150" height="150" viewBox="0 0 150 150" fill="none" xmlns="http://www.w3.org/2000/svg">
<g id="Group 3665">
<circle id="Ellipse 23" cx="75" cy="75" r="74.3182" stroke="#141414" stroke-width="1.36364"/>
<path id="Vector" fill-rule="evenodd" clip-rule="evenodd" d="M103.321 75.4555L107.218 71.5588C111.041 67.7355 112.952 62.6624 112.952 57.6628C113.099 40.3849 91.7042 31.3415 79.3522 43.7669L75.4555 47.6637L71.5588 43.7669C67.7355 39.9437 62.6624 38.0321 57.6628 38.0321C40.3849 37.8851 31.3415 59.2804 43.7669 71.6323L47.6637 75.529L43.7669 79.4258C39.9437 83.249 38.0321 88.3221 38.0321 93.3217C37.8851 110.673 59.2804 119.643 71.6323 107.218L75.529 103.321L79.4258 107.218C83.249 111.041 88.3221 112.952 93.3217 112.952C110.673 113.099 119.57 91.7042 107.218 79.3522L103.321 75.4555ZM90.0866 90.0867C81.5579 84.8665 69.4266 84.8665 60.8979 90.0867C66.118 81.4844 66.118 69.3531 60.8979 60.8244C61.192 60.9714 61.4861 61.192 61.8537 61.339C70.0148 65.8239 81.1903 65.8239 89.3514 61.339C89.6455 61.192 89.9396 61.0449 90.2337 60.8244C85.0135 69.3531 85.0135 81.5579 90.2337 90.0867H90.0866Z" fill="#F94D00"/>
</g>
</svg>
