<svg width="156" height="156" viewBox="0 0 156 156" fill="none" xmlns="http://www.w3.org/2000/svg">
<path d="M62.1086 148.556L61.7031 135.971L61.5713 135.935L54.8776 146.6L50.584 145.439L60.2321 131.015L65.3395 132.396L66.4022 149.717L62.1086 148.556Z" fill="#B3A3FF"/>
<path d="M36.3765 127.112C37.3618 125.594 38.4887 124.498 39.7573 123.822C41.0259 123.146 42.3363 122.858 43.6885 122.957C45.0362 123.054 46.3273 123.503 47.5618 124.305C48.8007 125.109 49.737 126.11 50.3705 127.306C51.004 128.502 51.2715 129.815 51.1729 131.245C51.0669 132.676 50.5227 134.147 49.5404 135.66C48.5551 137.177 47.4303 138.276 46.1662 138.954C44.8976 139.63 43.5894 139.92 42.2417 139.823C40.894 139.727 39.6007 139.276 38.3618 138.472C37.1273 137.67 36.1918 136.673 35.5554 135.481C34.9145 134.287 34.6448 132.972 34.7463 131.538C34.8478 130.105 35.3912 128.629 36.3765 127.112ZM39.7836 129.324C39.2006 130.222 38.8359 131.064 38.6894 131.849C38.5385 132.632 38.5975 133.337 38.8664 133.965C39.1307 134.59 39.5951 135.118 40.2595 135.549C40.9194 135.978 41.5907 136.187 42.2735 136.178C42.9563 136.168 43.6268 135.936 44.2849 135.483C44.9386 135.027 45.5569 134.35 46.14 133.452C46.723 132.554 47.0899 131.714 47.2408 130.931C47.3873 130.146 47.326 129.439 47.0572 128.811C46.7883 128.184 46.3239 127.655 45.6641 127.227C44.9997 126.795 44.3284 126.586 43.65 126.599C42.9672 126.608 42.299 126.841 41.6453 127.298C40.9872 127.751 40.3666 128.426 39.7836 129.324Z" fill="#B3A3FF"/>
<path d="M23.4133 111.642C24.8228 110.507 26.2356 109.817 27.6518 109.571C29.068 109.324 30.4029 109.459 31.6566 109.976C32.9069 110.488 33.9934 111.317 34.9161 112.464C35.8422 113.615 36.4196 114.858 36.6482 116.192C36.8768 117.526 36.7214 118.857 36.1818 120.185C35.6346 121.511 34.6584 122.74 33.2531 123.87C31.8436 125.005 30.4324 125.697 29.0196 125.947C27.6034 126.194 26.2702 126.061 25.0199 125.549C23.7696 125.036 22.6814 124.205 21.7553 123.054C20.8326 121.907 20.2548 120.668 20.022 119.337C19.7858 118.002 19.9397 116.669 20.4834 115.339C21.0272 114.008 22.0038 112.776 23.4133 111.642ZM25.9601 114.807C25.1261 115.478 24.5169 116.164 24.1327 116.864C23.7452 117.561 23.5812 118.249 23.6408 118.93C23.697 119.606 23.9734 120.252 24.47 120.87C24.9633 121.483 25.5358 121.891 26.1875 122.095C26.8393 122.299 27.5485 122.288 28.3153 122.062C29.0786 121.833 29.8773 121.383 30.7114 120.712C31.5454 120.04 32.1562 119.357 32.5437 118.66C32.928 117.959 33.0903 117.269 33.0307 116.589C32.9711 115.908 32.6946 115.262 32.2014 114.649C31.7048 114.031 31.1323 113.623 30.4839 113.423C29.8322 113.22 29.1246 113.232 28.3612 113.462C27.5945 113.687 26.7941 114.136 25.9601 114.807Z" fill="#B3A3FF"/>
<path d="M29.1676 104.368L13.9111 110.499L11.3781 104.197C10.919 103.055 10.7289 101.986 10.8078 100.991C10.8797 99.9932 11.2072 99.1145 11.7904 98.3552C12.3686 97.5979 13.1791 97.0096 14.2221 96.5905C15.2799 96.1653 16.2716 96.0349 17.1972 96.1994C18.1179 96.3659 18.9426 96.7959 19.6713 97.4894C20.395 98.1849 20.9904 99.1138 21.4575 100.276L23.0593 104.261L20.154 105.429L18.8276 102.129C18.6041 101.573 18.3454 101.137 18.0517 100.823C17.751 100.505 17.4128 100.309 17.0369 100.235C16.6561 100.164 16.2298 100.222 15.758 100.412C15.2862 100.602 14.9353 100.855 14.7052 101.173C14.4702 101.492 14.3516 101.871 14.3493 102.311C14.3421 102.752 14.4493 103.248 14.6708 103.8L15.4014 105.617L27.6856 100.68L29.1676 104.368ZM18.7427 98.5808L24.1885 91.9791L25.8053 96.0018L20.3296 102.529L18.7427 98.5808Z" fill="#B3A3FF"/>
<path d="M6.38058 82.1076L6.70723 77.1969L17.1422 73.7069L17.155 73.5146L7.27421 68.6732L7.60086 63.7625L24.0073 64.8539L23.7504 68.7151L13.6727 68.0448L13.6636 68.181L23.3751 72.7858L23.2109 75.2532L12.9191 78.5274L12.91 78.6636L23.0439 79.3377L22.787 83.1989L6.38058 82.1076Z" fill="#B3A3FF"/>
<path d="M25.2297 63.2138L9.94925 57.1418L14.183 46.4873L17.1824 47.6791L14.4162 54.6404L17.5499 55.8856L20.0997 49.469L23.1065 50.6639L20.5568 57.0805L23.6979 58.3287L26.4641 51.3674L29.4635 52.5593L25.2297 63.2138Z" fill="#B3A3FF"/>
<path d="M31.0694 49.9958L17.9428 40.0935L22.0333 34.6711C22.7747 33.6883 23.5918 32.9739 24.4848 32.5279C25.3767 32.0743 26.2984 31.9013 27.2497 32.0089C28.1968 32.1132 29.119 32.5039 30.0164 33.1808C30.9265 33.8674 31.55 34.6495 31.8869 35.5271C32.2195 36.4016 32.2769 37.3299 32.059 38.312C31.8368 39.2909 31.3486 40.2802 30.5943 41.2801L28.0076 44.7092L25.5079 42.8235L27.6498 39.9841C28.0108 39.5055 28.2502 39.0593 28.3681 38.6453C28.4849 38.2239 28.4779 37.8331 28.3473 37.4731C28.2123 37.1098 27.9419 36.775 27.536 36.4688C27.13 36.1626 26.7317 35.9929 26.3411 35.9597C25.9462 35.9233 25.56 36.0175 25.1826 36.2423C24.8009 36.4639 24.4311 36.8118 24.0733 37.2861L22.8936 38.85L33.4628 46.8231L31.0694 49.9958ZM30.645 38.08L39.1101 39.3368L36.4992 42.7979L28.0824 41.477L30.645 38.08Z" fill="#B3A3FF"/>
<path d="M40.5781 38.3196L30.686 25.1853L33.8606 22.7944L38.0434 28.3483L38.2166 28.2179L38.3755 19.394L42.1144 16.5781L41.8731 25.9464L52.0898 29.6495L48.2932 32.509L41.1342 29.8097L41.0719 32.3694L43.7526 35.9287L40.5781 38.3196Z" fill="#B3A3FF"/>
<path d="M53.5463 29.4131L47.5699 14.095L58.2507 9.92785L59.4238 12.9346L52.4454 15.6573L53.671 18.7987L60.1034 16.2891L61.2794 19.3033L54.847 21.813L56.0756 24.9618L63.054 22.2392L64.2271 25.2459L53.5463 29.4131Z" fill="#B3A3FF"/>
<path d="M79.6034 6.98204L81.0407 23.3618L77.6816 23.6566L70.3337 14.775L70.2297 14.7841L71.0593 24.2377L67.1003 24.5851L65.663 8.20533L69.0701 7.90635L76.3446 16.7782L76.4805 16.7663L75.6524 7.32874L79.6034 6.98204Z" fill="#B3A3FF"/>
<path d="M97.1467 9.45776L101.722 11.2717L101.851 22.274L102.03 22.3451L109.663 14.4201L114.238 16.234L108.178 31.5192L104.581 30.0929L108.303 20.7039L108.176 20.6536L100.82 28.4897L98.5213 27.5783L98.554 16.7782L98.4272 16.7279L94.6839 26.1692L91.0866 24.7429L97.1467 9.45776Z" fill="#B3A3FF"/>
<path d="M109.365 33.1845L119.822 20.4956L128.67 27.787L126.617 30.2777L120.837 25.5138L118.692 28.116L124.021 32.5072L121.963 35.0041L116.634 30.6129L114.485 33.2213L120.265 37.9853L118.213 40.4759L109.365 33.1845Z" fill="#B3A3FF"/>
<path d="M130.711 34.7572L133.36 32.9136L141.298 44.3206L138.649 46.1643L135.801 42.072L124.954 49.6208L122.716 46.4049L133.563 38.8561L130.711 34.7572Z" fill="#B3A3FF"/>
<path d="M131.88 66.187L131.109 61.9858L148.283 64.4779L149.237 69.6821L134.064 78.1037L133.294 73.9025L144.696 67.8862L144.673 67.7598L131.88 66.187ZM138.142 64.4595L139.752 73.2411L136.782 73.7854L135.173 65.0039L138.142 64.4595Z" fill="#B3A3FF"/>
<path d="M150.117 81.8026L149.37 86.6672L138.674 89.2482L138.644 89.4387L148.073 95.1106L147.326 99.9752L131.074 97.479L131.661 93.654L141.644 95.1873L141.665 95.0524L132.385 89.6307L132.76 87.1865L143.295 84.8082L143.316 84.6732L133.277 83.1314L133.865 79.3065L150.117 81.8026Z" fill="#B3A3FF"/>
<path d="M129.754 98.9944L144.416 106.436L141.313 112.55C140.755 113.648 140.134 114.488 139.448 115.071C138.76 115.658 138.042 115.996 137.295 116.084C136.545 116.178 135.803 116.038 135.068 115.665C134.509 115.382 134.07 115.012 133.749 114.555C133.434 114.101 133.237 113.596 133.159 113.04C133.081 112.484 133.121 111.907 133.281 111.31L133.138 111.237C132.808 111.814 132.371 112.28 131.826 112.633C131.278 112.991 130.666 113.191 129.991 113.233C129.32 113.276 128.632 113.119 127.926 112.76C127.138 112.361 126.536 111.803 126.119 111.087C125.707 110.374 125.514 109.547 125.541 108.606C125.573 107.668 125.864 106.657 126.414 105.574L129.754 98.9944ZM130.811 103.988L129.7 106.179C129.31 106.947 129.168 107.587 129.275 108.097C129.38 108.613 129.692 109.002 130.212 109.266C130.589 109.458 130.959 109.534 131.32 109.496C131.687 109.459 132.026 109.317 132.339 109.067C132.657 108.82 132.93 108.47 133.161 108.017L134.305 105.761L130.811 103.988ZM136.589 106.921L135.593 108.882C135.397 109.269 135.287 109.645 135.263 110.011C135.24 110.377 135.307 110.706 135.466 110.996C135.622 111.292 135.872 111.527 136.215 111.701C136.707 111.951 137.182 111.973 137.641 111.767C138.099 111.562 138.478 111.163 138.779 110.571L139.803 108.552L136.589 106.921Z" fill="#B3A3FF"/>
<path d="M132.275 125.724L119.521 115.346L122.029 112.264L134.783 122.642L132.275 125.724Z" fill="#B3A3FF"/>
<path d="M125.463 128.547L127.464 131.079L116.562 139.698L114.56 137.166L118.472 134.074L110.276 123.707L113.35 121.277L121.545 131.644L125.463 128.547Z" fill="#B3A3FF"/>
<path d="M107.323 144.207L100.169 129.402L103.747 127.673L110.901 142.478L107.323 144.207Z" fill="#B3A3FF"/>
<path d="M96.3327 131.093L100.277 147.056L89.147 149.806L88.3727 146.673L95.6447 144.876L94.8358 141.602L88.1328 143.259L87.3566 140.118L94.0597 138.461L93.2488 135.18L85.9768 136.977L85.2026 133.844L96.3327 131.093Z" fill="#B3A3FF"/>
<path d="M76.9696 138.042L77.966 140.958C78.1283 141.431 78.4918 141.809 78.9597 141.986L81.8402 143.081L78.9241 144.077C78.4504 144.24 78.0732 144.603 77.8959 145.071L76.8009 147.952L75.8045 145.035C75.6422 144.562 75.2786 144.185 74.8108 144.007L71.9303 142.912L74.8464 141.916C75.32 141.754 75.6973 141.39 75.8746 140.922L76.9696 138.042Z" fill="#E1FF00"/>
</svg>
